<svg xmlns="http://www.w3.org/2000/svg" version="1.1" xmlns:xlink="http://www.w3.org/1999/xlink" xmlns:svgjs="http://svgjs.dev/svgjs" width="1500" height="1518" viewBox="0 0 1500 1518"><g transform="matrix(1,0,0,1,-1.2786380947952694,0.6145748987853494)"><svg viewBox="0 0 244 247" data-background-color="#ffffff" preserveAspectRatio="xMidYMid meet" height="1518" width="1500" xmlns="http://www.w3.org/2000/svg" xmlns:xlink="http://www.w3.org/1999/xlink"><g id="tight-bounds" transform="matrix(1,0,0,1,0.20799179675336177,-0.09999999999999432)"><svg viewBox="0 0 243.58401640649328 247.2" height="247.2" width="243.58401640649328"><g><svg viewBox="0 0 243.58401640649328 247.2" height="247.2" width="243.58401640649328"><g><svg viewBox="0 0 395.52 401.3914600900457" height="247.2" width="243.58401640649328"><g transform="matrix(1,0,0,1,0,236.74839908658612)"><svg viewBox="0 0 395.52 164.64306100345962" height="164.64306100345962" width="395.52"><g id="textblocktransform"><svg viewBox="0 0 395.52 164.64306100345962" height="164.64306100345962" width="395.52" id="textblock"><g><svg viewBox="0 0 395.52 94.29116338207247" height="94.29116338207247" width="395.52"><g transform="matrix(1,0,0,1,0,0)"><svg width="395.52" viewBox="4.7 -37 157.29000000000002 37.5" height="94.29116338207247" data-palette-color="url(#d85785be-43a6-47ac-9d6e-db752953b664)"></svg></g></svg></g><g transform="matrix(1,0,0,1,0,116.55104406865861)"><svg viewBox="0 0 395.52 48.09201693480101" height="48.09201693480101" width="395.52"><g transform="matrix(1,0,0,1,0,0)"><svg width="395.52" viewBox="3.85 -35.35 295.21999999999997 35.9" height="48.09201693480101" data-palette-color="url(#961166fd-6f80-4978-a544-a6047a083c41)"></svg></g></svg></g></svg></g></svg></g><g transform="matrix(1,0,0,1,90.5157408,0)"><svg viewBox="0 0 214.48851839999998 214.48851839999998" height="214.48851839999998" width="214.48851839999998"><g><svg></svg></g><g id="icon-0"><svg viewBox="0 0 214.48851839999998 214.48851839999998" height="214.48851839999998" width="214.48851839999998"><g></g><g transform="matrix(1,0,0,1,29.812768300660593,27.80406719999999)"><svg viewBox="0 0 154.8629817986788 158.880384" height="158.880384" width="154.8629817986788"><g><svg xmlns="http://www.w3.org/2000/svg" xmlns:xlink="http://www.w3.org/1999/xlink" version="1.1" x="0" y="0" viewBox="5.637740379986418 5.999 87.72526144487975 90.001" enable-background="new 0 0 100 100" xml:space="preserve" height="158.880384" width="154.8629817986788" class="icon-cg-0" data-fill-palette-color="quaternary" id="cg-0"><g fill="#ffffff" data-fill-palette-color="quaternary"><path d="M58.203 96H40.796c-2.211 0-4.011-1.8-4.011-4.011v-7.236c0-0.358-0.744-0.91-1.94-1.438l-0.194-0.09c-2.285-1.021-4.509-2.359-6.563-3.955-0.524-0.407-1.227-0.518-1.633-0.281l-6.016 3.473c-2.092 1.207-4.493 0.42-5.558-1.424L6.177 65.962c-0.536-0.928-0.678-2.008-0.401-3.043 0.278-1.036 0.941-1.901 1.87-2.437l0.938 1.286L7.787 60.4l0.414-0.238 0.912 1.301L8.32 60.094l4.765-2.75c1.446-0.84 1.446-0.84 1.32-1.739-0.201-1.366-0.29-2.776-0.29-4.503v-0.203c0-1.726 0.089-3.136 0.281-4.435l0.013-0.094c0.122-0.874 0.122-0.874-1.377-1.743l-4.709-2.719 0.696-1.425-0.79 1.371-0.44-0.254 0.699-1.423-0.843 1.34c-1.914-1.105-2.573-3.563-1.467-5.478l8.704-15.076c0.714-1.238 2.046-2.006 3.476-2.006 0.701 0 1.394 0.186 2.003 0.537l6.111 3.528c0.409 0.223 1.1 0.11 1.617-0.292 2.052-1.594 4.277-2.933 6.612-3.979l0.145-0.066c1.196-0.528 1.94-1.079 1.94-1.438v-7.236c0-2.212 1.8-4.012 4.011-4.012h17.407c2.212 0 4.011 1.8 4.011 4.012v7.236c0 0.358 0.745 0.909 1.942 1.438l0.171 0.079c2.323 1.042 4.538 2.376 6.586 3.966 0.516 0.401 1.205 0.513 1.616 0.292l6.083-3.512c2.022-1.147 4.446-0.383 5.508 1.451l8.703 15.077c1.104 1.916 0.446 4.373-1.469 5.479l-4.01 2.316-0.901-1.308 0.794 1.369-1.223 0.707c-1.544 0.895-1.544 0.895-1.418 1.795l0.016 0.116c0.188 1.314 0.272 2.698 0.272 4.387L84.884 51l0.001 0.102c0 1.72-0.088 3.123-0.277 4.413l-0.001 0.016c-0.136 0.975-0.136 0.975 1.362 1.844l1.269 0.732-0.692 1.426 0.794-1.368 3.341 1.929-0.698 1.425 0.79-1.372 0.605 0.351c0.905 0.521 1.569 1.387 1.846 2.423 0.278 1.035 0.136 2.115-0.399 3.043L84.12 81.037c-0.715 1.238-2.048 2.006-3.478 2.006-0.701 0-1.394-0.186-2.003-0.537l-6.084-3.513c-0.436-0.252-1.119-0.13-1.642 0.275-2.041 1.585-4.247 2.915-6.558 3.954l-0.227 0.103c-1.171 0.518-1.916 1.069-1.916 1.428v7.236C62.214 94.2 60.415 96 58.203 96zM36.123 80.419c1.643 0.727 3.827 1.965 3.827 4.334v7.236c0 0.466 0.379 0.847 0.846 0.847h17.407c0.467 0 0.848-0.381 0.848-0.847v-7.236c0-2.369 2.185-3.607 3.827-4.334l0.129-0.06c2.102-0.939 4.107-2.147 5.965-3.589 1.52-1.182 3.647-1.392 5.153-0.525l2.512 1.449-0.679 1.437 0.785-1.373 1.374 0.793-0.645 1.454 0.791-1.37 1.941 1.121c0.173 0.092 0.303 0.123 0.438 0.123 0.304 0 0.586-0.163 0.736-0.425l8.703-15.074c0.113-0.196 0.144-0.424 0.084-0.643-0.058-0.218-0.197-0.4-0.394-0.514l-5.343-3.085c-2.381-1.38-3.312-2.363-2.978-4.897l0.016-0.122c0.174-1.184 0.253-2.446 0.253-4.018L81.72 51l0.001-0.102c0-1.571-0.079-2.834-0.247-3.974l-0.018-0.145c-0.353-2.541 0.576-3.529 2.926-4.891l1.577-0.911 0.891 1.312-0.792-1.369 3.04-1.755 0.884 1.316-0.789-1.371 0.523-0.303c0.46-0.266 0.6-0.785 0.366-1.19l-8.703-15.075c-0.227-0.393-0.754-0.542-1.157-0.31l-3.479 2.008-0.84-1.342 0.75 1.394-2.604 1.5v0c-1.617 0.865-3.599 0.585-5.077-0.565-1.854-1.439-3.859-2.646-5.96-3.586l-0.085-0.041c-1.696-0.75-3.876-1.988-3.876-4.354v-7.236c0-0.467-0.381-0.847-0.848-0.847H40.796c-0.467 0-0.846 0.379-0.846 0.847v7.236c0 2.369-2.184 3.607-3.827 4.333l-0.75-1.397 0.655 1.44c-2.139 0.958-4.146 2.166-5.999 3.605-1.52 1.182-3.648 1.392-5.153 0.526l-2.513-1.451 0.679-1.436-0.785 1.374-3.413-1.971c-0.197-0.114-0.338-0.152-0.487-0.152-0.303 0-0.584 0.163-0.735 0.424L8.917 37.62c-0.113 0.196-0.143 0.425-0.084 0.643s0.199 0.4 0.394 0.514l5.34 3.083c2.408 1.396 3.334 2.386 2.971 4.977l-0.014 0.099c-0.167 1.133-0.245 2.396-0.245 3.964l0.001 0.125c-0.001 1.646 0.077 2.909 0.245 4.052l0.014 0.107c0.362 2.573-0.565 3.562-2.921 4.929L9.285 63.19c-0.253 0.146-0.393 0.329-0.452 0.547-0.059 0.219-0.029 0.446 0.084 0.642l8.705 15.076c0.228 0.396 0.756 0.541 1.157 0.311l3.479-2.009 0.841 1.341-0.73-1.405 2.578-1.485c0.553-0.32 1.282-0.511 2.039-0.511 1.072 0 2.153 0.382 3.044 1.074 1.844 1.434 3.839 2.636 5.931 3.574l0.087 0.041-0.129 0.271-0.434 1.211L36.123 80.419z" fill="#ffffff" data-fill-palette-color="quaternary"></path></g><g fill="#ffffff" data-fill-palette-color="quaternary"><path d="M49.5 78.996c-15.382 0-27.896-12.513-27.896-27.895 0-15.382 12.514-27.896 27.896-27.896s27.896 12.514 27.896 27.896C77.396 66.483 64.882 78.996 49.5 78.996zM49.5 26.37c-13.637 0-24.731 11.095-24.731 24.732 0 13.637 11.094 24.731 24.731 24.731 13.638 0 24.732-11.095 24.732-24.731C74.232 37.464 63.138 26.37 49.5 26.37z" fill="#ffffff" data-fill-palette-color="quaternary"></path></g><path fill-rule="evenodd" clip-rule="evenodd" d="M60.46 62.594l-2.454-2.454 8.588-8.587-8.588-8.589 2.454-2.454 11.042 11.043L60.46 62.594zM44.735 61.963l7.537-22.557h3.471l-7.537 22.557H44.735zM39.529 61.726L28.487 50.685l11.042-11.042 2.454 2.454-8.588 8.588 8.588 8.588L39.529 61.726z" fill="#ffffff" data-fill-palette-color="quaternary"></path></svg></g></svg></g></svg></g></svg></g><g></g></svg></g></svg></g><defs></defs><mask id="ce19e17c-66d3-4412-9767-f22794f0abfe"><g id="SvgjsG1585"><svg viewBox="0 0 243.58401640649328 247.2" height="247.2" width="243.58401640649328"><g><svg viewBox="0 0 243.58401640649328 247.2" height="247.2" width="243.58401640649328"><g><svg viewBox="0 0 395.52 401.3914600900457" height="247.2" width="243.58401640649328"><g transform="matrix(1,0,0,1,0,236.74839908658612)"><svg viewBox="0 0 395.52 164.64306100345962" height="164.64306100345962" width="395.52"><g id="SvgjsG1584"><svg viewBox="0 0 395.52 164.64306100345962" height="164.64306100345962" width="395.52" id="SvgjsSvg1583"><g><svg viewBox="0 0 395.52 94.29116338207247" height="94.29116338207247" width="395.52"><g transform="matrix(1,0,0,1,0,0)"><svg width="395.52" viewBox="4.7 -37 157.29000000000002 37.5" height="94.29116338207247" data-palette-color="url(#d85785be-43a6-47ac-9d6e-db752953b664)"><path d="M6.9-2.95L24.05-2.95Q24.65-2.95 25.1-2.53 25.55-2.1 25.55-1.5L25.55-1.5Q25.55-0.85 25.1-0.43 24.65 0 24.05 0L24.05 0 6.2 0Q5.55 0 5.13-0.45 4.7-0.9 4.7-1.5L4.7-1.5 4.7-33.5Q4.7-34.1 5.15-34.55 5.6-35 6.3-35L6.3-35Q6.9-35 7.38-34.55 7.85-34.1 7.85-33.5L7.85-33.5 7.85-2.1 6.9-2.95ZM51.3-25.55L51.3-25.55Q51.95-25.55 52.37-25.1 52.8-24.65 52.8-24L52.8-24 52.8-1.5Q52.8-0.9 52.35-0.45 51.9 0 51.3 0L51.3 0Q50.6 0 50.2-0.45 49.8-0.9 49.8-1.5L49.8-1.5 49.8-7.45 50.65-7.85Q50.65-6.45 49.87-5 49.1-3.55 47.75-2.3 46.4-1.05 44.57-0.28 42.75 0.5 40.6 0.5L40.6 0.5Q37.25 0.5 34.57-1.25 31.9-3 30.37-6.05 28.85-9.1 28.85-12.9L28.85-12.9Q28.85-16.8 30.4-19.78 31.95-22.75 34.6-24.45 37.25-26.15 40.55-26.15L40.55-26.15Q42.7-26.15 44.57-25.4 46.45-24.65 47.85-23.35 49.25-22.05 50.05-20.38 50.85-18.7 50.85-16.9L50.85-16.9 49.8-17.65 49.8-24Q49.8-24.65 50.2-25.1 50.6-25.55 51.3-25.55ZM40.9-2.3L40.9-2.3Q43.55-2.3 45.6-3.68 47.65-5.05 48.82-7.48 50-9.9 50-12.9L50-12.9Q50-15.85 48.82-18.2 47.65-20.55 45.6-21.95 43.55-23.35 40.9-23.35L40.9-23.35Q38.3-23.35 36.22-22 34.15-20.65 32.97-18.3 31.8-15.95 31.8-12.9L31.8-12.9Q31.8-9.9 32.95-7.48 34.1-5.05 36.17-3.68 38.25-2.3 40.9-2.3ZM72.7-26.15L72.7-26.15Q76-26.15 77.97-24.83 79.95-23.5 80.82-21.23 81.7-18.95 81.7-16.2L81.7-16.2 81.7-1.5Q81.7-0.9 81.25-0.45 80.8 0 80.2 0L80.2 0Q79.5 0 79.1-0.45 78.7-0.9 78.7-1.5L78.7-1.5 78.7-16.05Q78.7-18.05 78.05-19.7 77.4-21.35 75.92-22.35 74.45-23.35 72.05-23.35L72.05-23.35Q69.9-23.35 67.97-22.35 66.05-21.35 64.85-19.7 63.65-18.05 63.65-16.05L63.65-16.05 63.65-1.5Q63.65-0.9 63.2-0.45 62.75 0 62.15 0L62.15 0Q61.45 0 61.05-0.45 60.65-0.9 60.65-1.5L60.65-1.5 60.65-23.9Q60.65-24.5 61.07-24.95 61.5-25.4 62.15-25.4L62.15-25.4Q62.8-25.4 63.22-24.95 63.65-24.5 63.65-23.9L63.65-23.9 63.65-19.7 62.5-17.9Q62.6-19.5 63.52-20.98 64.45-22.45 65.9-23.63 67.35-24.8 69.12-25.48 70.9-26.15 72.7-26.15ZM110.29-37L110.29-37Q110.94-37 111.37-36.58 111.79-36.15 111.79-35.5L111.79-35.5 111.79-1.5Q111.79-0.9 111.34-0.45 110.89 0 110.29 0L110.29 0Q109.59 0 109.19-0.45 108.79-0.9 108.79-1.5L108.79-1.5 108.79-7.45 109.64-8.15Q109.64-6.75 108.89-5.23 108.14-3.7 106.77-2.4 105.39-1.1 103.57-0.3 101.74 0.5 99.59 0.5L99.59 0.5Q96.29 0.5 93.62-1.25 90.94-3 89.39-6 87.84-9 87.84-12.85L87.84-12.85Q87.84-16.65 89.39-19.68 90.94-22.7 93.59-24.43 96.24-26.15 99.54-26.15L99.54-26.15Q101.64-26.15 103.49-25.4 105.34-24.65 106.77-23.35 108.19-22.05 109.02-20.38 109.84-18.7 109.84-16.9L109.84-16.9 108.79-17.65 108.79-35.5Q108.79-36.1 109.19-36.55 109.59-37 110.29-37ZM99.89-2.3L99.89-2.3Q102.54-2.3 104.59-3.68 106.64-5.05 107.82-7.43 108.99-9.8 108.99-12.85L108.99-12.85Q108.99-15.85 107.82-18.23 106.64-20.6 104.59-21.98 102.54-23.35 99.89-23.35L99.89-23.35Q97.29-23.35 95.22-21.98 93.14-20.6 91.97-18.23 90.79-15.85 90.79-12.85L90.79-12.85Q90.79-9.85 91.97-7.45 93.14-5.05 95.22-3.68 97.29-2.3 99.89-2.3ZM130.99 0.5L130.99 0.5Q127.14 0.5 124.19-1.15 121.24-2.8 119.59-5.75 117.94-8.7 117.94-12.65L117.94-12.65Q117.94-16.9 119.62-19.9 121.29-22.9 123.97-24.53 126.64-26.15 129.64-26.15L129.64-26.15Q131.84-26.15 133.92-25.38 135.99-24.6 137.59-23.08 139.19-21.55 140.19-19.35 141.19-17.15 141.24-14.25L141.24-14.25Q141.24-13.65 140.79-13.23 140.34-12.8 139.74-12.8L139.74-12.8 119.69-12.8 119.09-15.5 138.79-15.5 138.14-14.9 138.14-15.9Q137.89-18.25 136.59-19.9 135.29-21.55 133.47-22.4 131.64-23.25 129.64-23.25L129.64-23.25Q128.14-23.25 126.57-22.65 124.99-22.05 123.72-20.78 122.44-19.5 121.64-17.53 120.84-15.55 120.84-12.85L120.84-12.85Q120.84-9.9 122.04-7.5 123.24-5.1 125.49-3.7 127.74-2.3 130.94-2.3L130.94-2.3Q132.64-2.3 134.04-2.8 135.44-3.3 136.52-4.13 137.59-4.95 138.29-5.85L138.29-5.85Q138.84-6.3 139.34-6.3L139.34-6.3Q139.89-6.3 140.27-5.9 140.64-5.5 140.64-5L140.64-5Q140.64-4.4 140.14-3.95L140.14-3.95Q138.64-2.15 136.24-0.83 133.84 0.5 130.99 0.5ZM148.94 0L148.94 0Q148.24 0 147.84-0.45 147.44-0.9 147.44-1.5L147.44-1.5 147.44-23.9Q147.44-24.5 147.86-24.95 148.29-25.4 148.94-25.4L148.94-25.4Q149.59-25.4 150.01-24.95 150.44-24.5 150.44-23.9L150.44-23.9 150.44-16.4 149.69-16.25Q149.84-18 150.56-19.73 151.29-21.45 152.54-22.9 153.79-24.35 155.51-25.25 157.24-26.15 159.39-26.15L159.39-26.15Q160.29-26.15 161.14-25.78 161.99-25.4 161.99-24.55L161.99-24.55Q161.99-23.8 161.59-23.4 161.19-23 160.64-23L160.64-23Q160.19-23 159.66-23.25 159.14-23.5 158.29-23.5L158.29-23.5Q156.89-23.5 155.49-22.68 154.09-21.85 152.94-20.45 151.79-19.05 151.11-17.32 150.44-15.6 150.44-13.85L150.44-13.85 150.44-1.5Q150.44-0.9 149.99-0.45 149.54 0 148.94 0Z" opacity="1" transform="matrix(1,0,0,1,0,0)" fill="white" class="wordmark-text-0" id="SvgjsPath1582"></path></svg></g></svg></g><g transform="matrix(1,0,0,1,0,116.55104406865861)"><svg viewBox="0 0 395.52 48.09201693480101" height="48.09201693480101" width="395.52"><g transform="matrix(1,0,0,1,0,0)"><svg width="395.52" viewBox="3.85 -35.35 295.21999999999997 35.9" height="48.09201693480101" data-palette-color="url(#961166fd-6f80-4978-a544-a6047a083c41)"><path d="M20.6-18.2L20.6-14.65 7.9-14.65 7.9 0 3.85 0 3.85-33.7 22.35-33.7 22.35-30.15 7.9-30.15 7.9-18.2 20.6-18.2ZM47.8-25.35L47.8 0 43.85 0 43.85-4.4Q41.85 0.3 35.9 0.3L35.9 0.3Q32.15 0.3 29.97-1.93 27.8-4.15 27.8-7.9L27.8-7.9 27.8-25.35 31.75-25.35 31.75-8.9Q31.75-6.15 33.15-4.7 34.55-3.25 36.95-3.25L36.95-3.25Q40.1-3.25 41.97-5.45 43.85-7.65 43.85-11.4L43.85-11.4 43.85-25.35 47.8-25.35ZM59.25-35.35L59.25 0 55.3 0 55.3-35.35 59.25-35.35ZM70.89-35.35L70.89 0 66.94 0 66.94-35.35 70.89-35.35ZM110.29-8.95L110.29-8.95Q110.29-4.5 107.24-2.08 104.19 0.35 99.39 0.35L99.39 0.35Q94.09 0.35 90.39-1.8L90.39-1.8 90.39-6.15Q94.04-3.4 99.29-3.4L99.29-3.4Q102.44-3.4 104.24-4.8 106.04-6.2 106.04-8.85L106.04-8.85Q106.04-9.95 105.61-10.83 105.19-11.7 104.21-12.43 103.24-13.15 102.36-13.63 101.49-14.1 99.99-14.8L99.99-14.8Q99.69-14.95 99.09-15.2L99.09-15.2Q96.94-16.15 95.81-16.75 94.69-17.35 93.16-18.53 91.64-19.7 90.94-21.25 90.24-22.8 90.24-24.85L90.24-24.85Q90.24-29.15 93.31-31.58 96.39-34 101.04-34L101.04-34Q105.39-34 108.44-32.45L108.44-32.45 108.44-28.2Q105.39-30.2 101.14-30.2L101.14-30.2Q98.09-30.2 96.29-28.78 94.49-27.35 94.49-25.05L94.49-25.05Q94.49-23.85 94.96-22.9 95.44-21.95 96.64-21.13 97.84-20.3 98.69-19.88 99.54-19.45 101.34-18.65L101.34-18.65Q103.04-17.9 103.94-17.48 104.84-17.05 106.26-16.13 107.69-15.2 108.41-14.33 109.14-13.45 109.71-12.03 110.29-10.6 110.29-8.95ZM129.49-4.4L129.49-0.65Q127.84 0.25 125.79 0.25L125.79 0.25Q118.29 0.25 118.29-7.4L118.29-7.4 118.29-22.15 114.24-22.15 114.24-25.35 118.29-25.35 118.29-31.65 122.24-31.65 122.24-25.35 129.24-25.35 129.24-22.15 122.24-22.15 122.24-7.3Q122.24-3.25 126.04-3.25L126.04-3.25Q127.99-3.25 129.49-4.4L129.49-4.4ZM142.98-3.05L142.98-3.05Q145.68-3.05 147.28-4.58 148.88-6.1 148.88-8.45L148.88-8.45 148.88-11.7 144.48-11.7Q141.28-11.7 139.68-10.45 138.08-9.2 138.08-7.3 138.08-5.4 139.33-4.23 140.58-3.05 142.98-3.05ZM148.93 0L148.93-3Q146.98 0.25 141.83 0.25L141.83 0.25Q138.28 0.25 136.11-1.85 133.93-3.95 133.93-7.15L133.93-7.15Q133.93-10.8 136.71-12.83 139.48-14.85 144.28-14.85L144.28-14.85 148.88-14.85 148.88-16.15Q148.88-19.15 147.53-20.68 146.18-22.2 142.98-22.2L142.98-22.2Q138.93-22.2 135.78-20.05L135.78-20.05 135.78-24Q138.63-25.75 143.28-25.75L143.28-25.75Q152.83-25.75 152.83-16.05L152.83-16.05 152.83 0 148.93 0ZM177.28-4.65L177.28-0.9Q174.88 0.55 171.38 0.55L171.38 0.55Q165.38 0.55 161.86-3.28 158.33-7.1 158.33-12.6L158.33-12.6Q158.33-18 161.86-21.9 165.38-25.8 171.48-25.8L171.48-25.8Q174.73-25.8 177.28-24.4L177.28-24.4 177.28-20.65Q174.98-22.2 171.88-22.2L171.88-22.2Q167.58-22.2 165-19.43 162.43-16.65 162.43-12.55L162.43-12.55Q162.48-8.45 164.93-5.73 167.38-3 171.88-3L171.88-3Q174.78-3 177.28-4.65L177.28-4.65ZM187.28-35.15L187.28 0 183.38 0 183.38-35.15 187.28-35.15ZM202.43-25.35L192.43-13.3 202.73 0 197.98 0 187.78-13.3 197.73-25.35 202.43-25.35ZM229.97 0L229.97 0 219.77 0 219.77-33.7 229.77-33.7Q237.22-33.7 242-29.08 246.77-24.45 246.77-17.1L246.77-17.1Q246.77-9.8 242.35-4.9 237.92 0 229.97 0ZM229.72-30.1L229.72-30.1 223.87-30.1 223.87-3.55 229.92-3.55Q236.17-3.55 239.37-7.43 242.57-11.3 242.57-17.1L242.57-17.1Q242.57-22.6 239-26.35 235.42-30.1 229.72-30.1ZM271.12-5L271.12-1.3Q268.17 0.25 263.92 0.25L263.92 0.25Q258.17 0.25 254.65-3.28 251.12-6.8 251.12-12.6L251.12-12.6Q251.12-18.65 254.27-22.15 257.42-25.65 262.37-25.65L262.37-25.65Q267.12-25.65 269.92-22.6 272.72-19.55 272.72-13.95L272.72-13.95Q272.72-12.35 272.47-11L272.47-11 255.17-11Q255.62-7.25 258.02-5.25 260.42-3.25 264.32-3.25L264.32-3.25Q268.57-3.25 271.12-5L271.12-5ZM262.37-22.2L262.37-22.2Q259.52-22.2 257.52-20.15 255.52-18.1 255.17-14.3L255.17-14.3 268.77-14.3 268.77-15.3Q268.77-18.45 267.07-20.33 265.37-22.2 262.37-22.2ZM299.07-25.35L290.02 0 285.17 0 276.32-25.35 280.42-25.35 283.92-14.65 287.62-3.1Q288.07-5.25 291.37-14.65L291.37-14.65 294.97-25.35 299.07-25.35Z" opacity="1" transform="matrix(1,0,0,1,0,0)" fill="black" class="slogan-text-1" id="SvgjsPath1581"></path></svg></g></svg></g></svg></g></svg></g><g transform="matrix(1,0,0,1,90.5157408,0)"><svg viewBox="0 0 214.48851839999998 214.48851839999998" height="214.48851839999998" width="214.48851839999998"><g><svg></svg></g><g id="SvgjsG1580"><svg viewBox="0 0 214.48851839999998 214.48851839999998" height="214.48851839999998" width="214.48851839999998"><g><rect width="195.02567136" height="195.02567136" x="9.731423519999993" y="9.731423519999993" fill="black"></rect><rect width="195.02567136" height="195.02567136" x="-5.329070518200751e-15" y="19.462847039999993" fill="black" opacity="0.5"></rect></g><g transform="matrix(1,0,0,1,29.812768300660593,27.80406719999999)"><svg viewBox="0 0 154.8629817986788 158.880384" height="158.880384" width="154.8629817986788"><g><svg xmlns="http://www.w3.org/2000/svg" xmlns:xlink="http://www.w3.org/1999/xlink" version="1.1" x="0" y="0" viewBox="5.637740379986418 5.999 87.72526144487975 90.001" enable-background="new 0 0 100 100" xml:space="preserve" height="158.880384" width="154.8629817986788" class="icon-cg-0" data-fill-palette-color="quaternary" id="SvgjsSvg1579"><g fill="black"><path d="M58.203 96H40.796c-2.211 0-4.011-1.8-4.011-4.011v-7.236c0-0.358-0.744-0.91-1.94-1.438l-0.194-0.09c-2.285-1.021-4.509-2.359-6.563-3.955-0.524-0.407-1.227-0.518-1.633-0.281l-6.016 3.473c-2.092 1.207-4.493 0.42-5.558-1.424L6.177 65.962c-0.536-0.928-0.678-2.008-0.401-3.043 0.278-1.036 0.941-1.901 1.87-2.437l0.938 1.286L7.787 60.4l0.414-0.238 0.912 1.301L8.32 60.094l4.765-2.75c1.446-0.84 1.446-0.84 1.32-1.739-0.201-1.366-0.29-2.776-0.29-4.503v-0.203c0-1.726 0.089-3.136 0.281-4.435l0.013-0.094c0.122-0.874 0.122-0.874-1.377-1.743l-4.709-2.719 0.696-1.425-0.79 1.371-0.44-0.254 0.699-1.423-0.843 1.34c-1.914-1.105-2.573-3.563-1.467-5.478l8.704-15.076c0.714-1.238 2.046-2.006 3.476-2.006 0.701 0 1.394 0.186 2.003 0.537l6.111 3.528c0.409 0.223 1.1 0.11 1.617-0.292 2.052-1.594 4.277-2.933 6.612-3.979l0.145-0.066c1.196-0.528 1.94-1.079 1.94-1.438v-7.236c0-2.212 1.8-4.012 4.011-4.012h17.407c2.212 0 4.011 1.8 4.011 4.012v7.236c0 0.358 0.745 0.909 1.942 1.438l0.171 0.079c2.323 1.042 4.538 2.376 6.586 3.966 0.516 0.401 1.205 0.513 1.616 0.292l6.083-3.512c2.022-1.147 4.446-0.383 5.508 1.451l8.703 15.077c1.104 1.916 0.446 4.373-1.469 5.479l-4.01 2.316-0.901-1.308 0.794 1.369-1.223 0.707c-1.544 0.895-1.544 0.895-1.418 1.795l0.016 0.116c0.188 1.314 0.272 2.698 0.272 4.387L84.884 51l0.001 0.102c0 1.72-0.088 3.123-0.277 4.413l-0.001 0.016c-0.136 0.975-0.136 0.975 1.362 1.844l1.269 0.732-0.692 1.426 0.794-1.368 3.341 1.929-0.698 1.425 0.79-1.372 0.605 0.351c0.905 0.521 1.569 1.387 1.846 2.423 0.278 1.035 0.136 2.115-0.399 3.043L84.12 81.037c-0.715 1.238-2.048 2.006-3.478 2.006-0.701 0-1.394-0.186-2.003-0.537l-6.084-3.513c-0.436-0.252-1.119-0.13-1.642 0.275-2.041 1.585-4.247 2.915-6.558 3.954l-0.227 0.103c-1.171 0.518-1.916 1.069-1.916 1.428v7.236C62.214 94.2 60.415 96 58.203 96zM36.123 80.419c1.643 0.727 3.827 1.965 3.827 4.334v7.236c0 0.466 0.379 0.847 0.846 0.847h17.407c0.467 0 0.848-0.381 0.848-0.847v-7.236c0-2.369 2.185-3.607 3.827-4.334l0.129-0.06c2.102-0.939 4.107-2.147 5.965-3.589 1.52-1.182 3.647-1.392 5.153-0.525l2.512 1.449-0.679 1.437 0.785-1.373 1.374 0.793-0.645 1.454 0.791-1.37 1.941 1.121c0.173 0.092 0.303 0.123 0.438 0.123 0.304 0 0.586-0.163 0.736-0.425l8.703-15.074c0.113-0.196 0.144-0.424 0.084-0.643-0.058-0.218-0.197-0.4-0.394-0.514l-5.343-3.085c-2.381-1.38-3.312-2.363-2.978-4.897l0.016-0.122c0.174-1.184 0.253-2.446 0.253-4.018L81.72 51l0.001-0.102c0-1.571-0.079-2.834-0.247-3.974l-0.018-0.145c-0.353-2.541 0.576-3.529 2.926-4.891l1.577-0.911 0.891 1.312-0.792-1.369 3.04-1.755 0.884 1.316-0.789-1.371 0.523-0.303c0.46-0.266 0.6-0.785 0.366-1.19l-8.703-15.075c-0.227-0.393-0.754-0.542-1.157-0.31l-3.479 2.008-0.84-1.342 0.75 1.394-2.604 1.5v0c-1.617 0.865-3.599 0.585-5.077-0.565-1.854-1.439-3.859-2.646-5.96-3.586l-0.085-0.041c-1.696-0.75-3.876-1.988-3.876-4.354v-7.236c0-0.467-0.381-0.847-0.848-0.847H40.796c-0.467 0-0.846 0.379-0.846 0.847v7.236c0 2.369-2.184 3.607-3.827 4.333l-0.75-1.397 0.655 1.44c-2.139 0.958-4.146 2.166-5.999 3.605-1.52 1.182-3.648 1.392-5.153 0.526l-2.513-1.451 0.679-1.436-0.785 1.374-3.413-1.971c-0.197-0.114-0.338-0.152-0.487-0.152-0.303 0-0.584 0.163-0.735 0.424L8.917 37.62c-0.113 0.196-0.143 0.425-0.084 0.643s0.199 0.4 0.394 0.514l5.34 3.083c2.408 1.396 3.334 2.386 2.971 4.977l-0.014 0.099c-0.167 1.133-0.245 2.396-0.245 3.964l0.001 0.125c-0.001 1.646 0.077 2.909 0.245 4.052l0.014 0.107c0.362 2.573-0.565 3.562-2.921 4.929L9.285 63.19c-0.253 0.146-0.393 0.329-0.452 0.547-0.059 0.219-0.029 0.446 0.084 0.642l8.705 15.076c0.228 0.396 0.756 0.541 1.157 0.311l3.479-2.009 0.841 1.341-0.73-1.405 2.578-1.485c0.553-0.32 1.282-0.511 2.039-0.511 1.072 0 2.153 0.382 3.044 1.074 1.844 1.434 3.839 2.636 5.931 3.574l0.087 0.041-0.129 0.271-0.434 1.211L36.123 80.419z" fill="black"></path></g><g fill="black"><path d="M49.5 78.996c-15.382 0-27.896-12.513-27.896-27.895 0-15.382 12.514-27.896 27.896-27.896s27.896 12.514 27.896 27.896C77.396 66.483 64.882 78.996 49.5 78.996zM49.5 26.37c-13.637 0-24.731 11.095-24.731 24.732 0 13.637 11.094 24.731 24.731 24.731 13.638 0 24.732-11.095 24.732-24.731C74.232 37.464 63.138 26.37 49.5 26.37z" fill="black"></path></g><path fill-rule="evenodd" clip-rule="evenodd" d="M60.46 62.594l-2.454-2.454 8.588-8.587-8.588-8.589 2.454-2.454 11.042 11.043L60.46 62.594zM44.735 61.963l7.537-22.557h3.471l-7.537 22.557H44.735zM39.529 61.726L28.487 50.685l11.042-11.042 2.454 2.454-8.588 8.588 8.588 8.588L39.529 61.726z" fill="black"></path></svg></g></svg></g></svg></g></svg></g><g></g></svg></g></svg></g><defs><mask></mask></defs></svg><rect width="243.58401640649328" height="247.2" fill="black" stroke="none" visibility="hidden"></rect></g></mask><linearGradient x1="0.054" x2="0.941" y1="0.5" y2="0.5" id="d85785be-43a6-47ac-9d6e-db752953b664"><stop stop-color="#0f3054" offset="0"></stop><stop stop-color="#3b8dcb" offset="0.498"></stop><stop stop-color="#0f3054" offset="1"></stop></linearGradient><rect width="243.58401640649328" height="247.2" fill="url(#d85785be-43a6-47ac-9d6e-db752953b664)" mask="url(#ce19e17c-66d3-4412-9767-f22794f0abfe)" data-fill-palette-color="primary"></rect><mask id="9c8e40f0-0295-4e9d-a3cd-22ca89009e85"><g id="SvgjsG1598"><svg viewBox="0 0 243.58401640649328 247.2" height="247.2" width="243.58401640649328"><g><svg viewBox="0 0 243.58401640649328 247.2" height="247.2" width="243.58401640649328"><g><svg viewBox="0 0 395.52 401.3914600900457" height="247.2" width="243.58401640649328"><g transform="matrix(1,0,0,1,0,236.74839908658612)"><svg viewBox="0 0 395.52 164.64306100345962" height="164.64306100345962" width="395.52"><g id="SvgjsG1597"><svg viewBox="0 0 395.52 164.64306100345962" height="164.64306100345962" width="395.52" id="SvgjsSvg1596"><g><svg viewBox="0 0 395.52 94.29116338207247" height="94.29116338207247" width="395.52"><g transform="matrix(1,0,0,1,0,0)"><svg width="395.52" viewBox="4.7 -37 157.29000000000002 37.5" height="94.29116338207247" data-palette-color="url(#d85785be-43a6-47ac-9d6e-db752953b664)"></svg></g></svg></g><g transform="matrix(1,0,0,1,0,116.55104406865861)"><svg viewBox="0 0 395.52 48.09201693480101" height="48.09201693480101" width="395.52"><g transform="matrix(1,0,0,1,0,0)"><svg width="395.52" viewBox="3.85 -35.35 295.21999999999997 35.9" height="48.09201693480101" data-palette-color="url(#961166fd-6f80-4978-a544-a6047a083c41)"><path d="M20.6-18.2L20.6-14.65 7.9-14.65 7.9 0 3.85 0 3.85-33.7 22.35-33.7 22.35-30.15 7.9-30.15 7.9-18.2 20.6-18.2ZM47.8-25.35L47.8 0 43.85 0 43.85-4.4Q41.85 0.3 35.9 0.3L35.9 0.3Q32.15 0.3 29.97-1.93 27.8-4.15 27.8-7.9L27.8-7.9 27.8-25.35 31.75-25.35 31.75-8.9Q31.75-6.15 33.15-4.7 34.55-3.25 36.95-3.25L36.95-3.25Q40.1-3.25 41.97-5.45 43.85-7.65 43.85-11.4L43.85-11.4 43.85-25.35 47.8-25.35ZM59.25-35.35L59.25 0 55.3 0 55.3-35.35 59.25-35.35ZM70.89-35.35L70.89 0 66.94 0 66.94-35.35 70.89-35.35ZM110.29-8.95L110.29-8.95Q110.29-4.5 107.24-2.08 104.19 0.35 99.39 0.35L99.39 0.35Q94.09 0.35 90.39-1.8L90.39-1.8 90.39-6.15Q94.04-3.4 99.29-3.4L99.29-3.4Q102.44-3.4 104.24-4.8 106.04-6.2 106.04-8.85L106.04-8.85Q106.04-9.95 105.61-10.83 105.19-11.7 104.21-12.43 103.24-13.15 102.36-13.63 101.49-14.1 99.99-14.8L99.99-14.8Q99.69-14.95 99.09-15.2L99.09-15.2Q96.94-16.15 95.81-16.75 94.69-17.35 93.16-18.53 91.64-19.7 90.94-21.25 90.24-22.8 90.24-24.85L90.24-24.85Q90.24-29.15 93.31-31.58 96.39-34 101.04-34L101.04-34Q105.39-34 108.44-32.45L108.44-32.45 108.44-28.2Q105.39-30.2 101.14-30.2L101.14-30.2Q98.09-30.2 96.29-28.78 94.49-27.35 94.49-25.05L94.49-25.05Q94.49-23.85 94.96-22.9 95.44-21.95 96.64-21.13 97.84-20.3 98.69-19.88 99.54-19.45 101.34-18.65L101.34-18.65Q103.04-17.9 103.94-17.48 104.84-17.05 106.26-16.13 107.69-15.2 108.41-14.33 109.14-13.45 109.71-12.03 110.29-10.6 110.29-8.95ZM129.49-4.4L129.49-0.65Q127.84 0.25 125.79 0.25L125.79 0.25Q118.29 0.25 118.29-7.4L118.29-7.4 118.29-22.15 114.24-22.15 114.24-25.35 118.29-25.35 118.29-31.65 122.24-31.65 122.24-25.35 129.24-25.35 129.24-22.15 122.24-22.15 122.24-7.3Q122.24-3.25 126.04-3.25L126.04-3.25Q127.99-3.25 129.49-4.4L129.49-4.4ZM142.98-3.05L142.98-3.05Q145.68-3.05 147.28-4.58 148.88-6.1 148.88-8.45L148.88-8.45 148.88-11.7 144.48-11.7Q141.28-11.7 139.68-10.45 138.08-9.2 138.08-7.3 138.08-5.4 139.33-4.23 140.58-3.05 142.98-3.05ZM148.93 0L148.93-3Q146.98 0.25 141.83 0.25L141.83 0.25Q138.28 0.25 136.11-1.85 133.93-3.95 133.93-7.15L133.93-7.15Q133.93-10.8 136.71-12.83 139.48-14.85 144.28-14.85L144.28-14.85 148.88-14.85 148.88-16.15Q148.88-19.15 147.53-20.68 146.18-22.2 142.98-22.2L142.98-22.2Q138.93-22.2 135.78-20.05L135.78-20.05 135.78-24Q138.63-25.75 143.28-25.75L143.28-25.75Q152.83-25.75 152.83-16.05L152.83-16.05 152.83 0 148.93 0ZM177.28-4.65L177.28-0.9Q174.88 0.55 171.38 0.55L171.38 0.55Q165.38 0.55 161.86-3.28 158.33-7.1 158.33-12.6L158.33-12.6Q158.33-18 161.86-21.9 165.38-25.8 171.48-25.8L171.48-25.8Q174.73-25.8 177.28-24.4L177.28-24.4 177.28-20.65Q174.98-22.2 171.88-22.2L171.88-22.2Q167.58-22.2 165-19.43 162.43-16.65 162.43-12.55L162.43-12.55Q162.48-8.45 164.93-5.73 167.38-3 171.88-3L171.88-3Q174.78-3 177.28-4.65L177.28-4.65ZM187.28-35.15L187.28 0 183.38 0 183.38-35.15 187.28-35.15ZM202.43-25.35L192.43-13.3 202.73 0 197.98 0 187.78-13.3 197.73-25.35 202.43-25.35ZM229.97 0L229.97 0 219.77 0 219.77-33.7 229.77-33.7Q237.22-33.7 242-29.08 246.77-24.45 246.77-17.1L246.77-17.1Q246.77-9.8 242.35-4.9 237.92 0 229.97 0ZM229.72-30.1L229.72-30.1 223.87-30.1 223.87-3.55 229.92-3.55Q236.17-3.55 239.37-7.43 242.57-11.3 242.57-17.1L242.57-17.1Q242.57-22.6 239-26.35 235.42-30.1 229.72-30.1ZM271.12-5L271.12-1.3Q268.17 0.25 263.92 0.25L263.92 0.25Q258.17 0.25 254.65-3.28 251.12-6.8 251.12-12.6L251.12-12.6Q251.12-18.65 254.27-22.15 257.42-25.65 262.37-25.65L262.37-25.65Q267.12-25.65 269.92-22.6 272.72-19.55 272.72-13.95L272.72-13.95Q272.72-12.35 272.47-11L272.47-11 255.17-11Q255.62-7.25 258.02-5.25 260.42-3.25 264.32-3.25L264.32-3.25Q268.57-3.25 271.12-5L271.12-5ZM262.37-22.2L262.37-22.2Q259.52-22.2 257.52-20.15 255.52-18.1 255.17-14.3L255.17-14.3 268.77-14.3 268.77-15.3Q268.77-18.45 267.07-20.33 265.37-22.2 262.37-22.2ZM299.07-25.35L290.02 0 285.17 0 276.32-25.35 280.42-25.35 283.92-14.65 287.62-3.1Q288.07-5.25 291.37-14.65L291.37-14.65 294.97-25.35 299.07-25.35Z" opacity="1" transform="matrix(1,0,0,1,0,0)" fill="white" class="slogan-text-1" id="SvgjsPath1595"></path></svg></g></svg></g></svg></g></svg></g><g transform="matrix(1,0,0,1,90.5157408,0)"><svg viewBox="0 0 214.48851839999998 214.48851839999998" height="214.48851839999998" width="214.48851839999998"><g><svg></svg></g><g id="SvgjsG1594"><svg viewBox="0 0 214.48851839999998 214.48851839999998" height="214.48851839999998" width="214.48851839999998"><g><rect width="195.02567136" height="195.02567136" x="9.731423519999993" y="9.731423519999993" fill="black"></rect><rect width="195.02567136" height="195.02567136" x="-5.329070518200751e-15" y="19.462847039999993" fill="black" opacity="0.5"></rect></g><g transform="matrix(1,0,0,1,29.812768300660593,27.80406719999999)"><svg viewBox="0 0 154.8629817986788 158.880384" height="158.880384" width="154.8629817986788"><g><svg xmlns="http://www.w3.org/2000/svg" xmlns:xlink="http://www.w3.org/1999/xlink" version="1.1" x="0" y="0" viewBox="5.637740379986418 5.999 87.72526144487975 90.001" enable-background="new 0 0 100 100" xml:space="preserve" height="158.880384" width="154.8629817986788" class="icon-cg-0" data-fill-palette-color="quaternary" id="SvgjsSvg1593"><g fill="black"><path d="M58.203 96H40.796c-2.211 0-4.011-1.8-4.011-4.011v-7.236c0-0.358-0.744-0.91-1.94-1.438l-0.194-0.09c-2.285-1.021-4.509-2.359-6.563-3.955-0.524-0.407-1.227-0.518-1.633-0.281l-6.016 3.473c-2.092 1.207-4.493 0.42-5.558-1.424L6.177 65.962c-0.536-0.928-0.678-2.008-0.401-3.043 0.278-1.036 0.941-1.901 1.87-2.437l0.938 1.286L7.787 60.4l0.414-0.238 0.912 1.301L8.32 60.094l4.765-2.75c1.446-0.84 1.446-0.84 1.32-1.739-0.201-1.366-0.29-2.776-0.29-4.503v-0.203c0-1.726 0.089-3.136 0.281-4.435l0.013-0.094c0.122-0.874 0.122-0.874-1.377-1.743l-4.709-2.719 0.696-1.425-0.79 1.371-0.44-0.254 0.699-1.423-0.843 1.34c-1.914-1.105-2.573-3.563-1.467-5.478l8.704-15.076c0.714-1.238 2.046-2.006 3.476-2.006 0.701 0 1.394 0.186 2.003 0.537l6.111 3.528c0.409 0.223 1.1 0.11 1.617-0.292 2.052-1.594 4.277-2.933 6.612-3.979l0.145-0.066c1.196-0.528 1.94-1.079 1.94-1.438v-7.236c0-2.212 1.8-4.012 4.011-4.012h17.407c2.212 0 4.011 1.8 4.011 4.012v7.236c0 0.358 0.745 0.909 1.942 1.438l0.171 0.079c2.323 1.042 4.538 2.376 6.586 3.966 0.516 0.401 1.205 0.513 1.616 0.292l6.083-3.512c2.022-1.147 4.446-0.383 5.508 1.451l8.703 15.077c1.104 1.916 0.446 4.373-1.469 5.479l-4.01 2.316-0.901-1.308 0.794 1.369-1.223 0.707c-1.544 0.895-1.544 0.895-1.418 1.795l0.016 0.116c0.188 1.314 0.272 2.698 0.272 4.387L84.884 51l0.001 0.102c0 1.72-0.088 3.123-0.277 4.413l-0.001 0.016c-0.136 0.975-0.136 0.975 1.362 1.844l1.269 0.732-0.692 1.426 0.794-1.368 3.341 1.929-0.698 1.425 0.79-1.372 0.605 0.351c0.905 0.521 1.569 1.387 1.846 2.423 0.278 1.035 0.136 2.115-0.399 3.043L84.12 81.037c-0.715 1.238-2.048 2.006-3.478 2.006-0.701 0-1.394-0.186-2.003-0.537l-6.084-3.513c-0.436-0.252-1.119-0.13-1.642 0.275-2.041 1.585-4.247 2.915-6.558 3.954l-0.227 0.103c-1.171 0.518-1.916 1.069-1.916 1.428v7.236C62.214 94.2 60.415 96 58.203 96zM36.123 80.419c1.643 0.727 3.827 1.965 3.827 4.334v7.236c0 0.466 0.379 0.847 0.846 0.847h17.407c0.467 0 0.848-0.381 0.848-0.847v-7.236c0-2.369 2.185-3.607 3.827-4.334l0.129-0.06c2.102-0.939 4.107-2.147 5.965-3.589 1.52-1.182 3.647-1.392 5.153-0.525l2.512 1.449-0.679 1.437 0.785-1.373 1.374 0.793-0.645 1.454 0.791-1.37 1.941 1.121c0.173 0.092 0.303 0.123 0.438 0.123 0.304 0 0.586-0.163 0.736-0.425l8.703-15.074c0.113-0.196 0.144-0.424 0.084-0.643-0.058-0.218-0.197-0.4-0.394-0.514l-5.343-3.085c-2.381-1.38-3.312-2.363-2.978-4.897l0.016-0.122c0.174-1.184 0.253-2.446 0.253-4.018L81.72 51l0.001-0.102c0-1.571-0.079-2.834-0.247-3.974l-0.018-0.145c-0.353-2.541 0.576-3.529 2.926-4.891l1.577-0.911 0.891 1.312-0.792-1.369 3.04-1.755 0.884 1.316-0.789-1.371 0.523-0.303c0.46-0.266 0.6-0.785 0.366-1.19l-8.703-15.075c-0.227-0.393-0.754-0.542-1.157-0.31l-3.479 2.008-0.84-1.342 0.75 1.394-2.604 1.5v0c-1.617 0.865-3.599 0.585-5.077-0.565-1.854-1.439-3.859-2.646-5.96-3.586l-0.085-0.041c-1.696-0.75-3.876-1.988-3.876-4.354v-7.236c0-0.467-0.381-0.847-0.848-0.847H40.796c-0.467 0-0.846 0.379-0.846 0.847v7.236c0 2.369-2.184 3.607-3.827 4.333l-0.75-1.397 0.655 1.44c-2.139 0.958-4.146 2.166-5.999 3.605-1.52 1.182-3.648 1.392-5.153 0.526l-2.513-1.451 0.679-1.436-0.785 1.374-3.413-1.971c-0.197-0.114-0.338-0.152-0.487-0.152-0.303 0-0.584 0.163-0.735 0.424L8.917 37.62c-0.113 0.196-0.143 0.425-0.084 0.643s0.199 0.4 0.394 0.514l5.34 3.083c2.408 1.396 3.334 2.386 2.971 4.977l-0.014 0.099c-0.167 1.133-0.245 2.396-0.245 3.964l0.001 0.125c-0.001 1.646 0.077 2.909 0.245 4.052l0.014 0.107c0.362 2.573-0.565 3.562-2.921 4.929L9.285 63.19c-0.253 0.146-0.393 0.329-0.452 0.547-0.059 0.219-0.029 0.446 0.084 0.642l8.705 15.076c0.228 0.396 0.756 0.541 1.157 0.311l3.479-2.009 0.841 1.341-0.73-1.405 2.578-1.485c0.553-0.32 1.282-0.511 2.039-0.511 1.072 0 2.153 0.382 3.044 1.074 1.844 1.434 3.839 2.636 5.931 3.574l0.087 0.041-0.129 0.271-0.434 1.211L36.123 80.419z" fill="black"></path></g><g fill="black"><path d="M49.5 78.996c-15.382 0-27.896-12.513-27.896-27.895 0-15.382 12.514-27.896 27.896-27.896s27.896 12.514 27.896 27.896C77.396 66.483 64.882 78.996 49.5 78.996zM49.5 26.37c-13.637 0-24.731 11.095-24.731 24.732 0 13.637 11.094 24.731 24.731 24.731 13.638 0 24.732-11.095 24.732-24.731C74.232 37.464 63.138 26.37 49.5 26.37z" fill="black"></path></g><path fill-rule="evenodd" clip-rule="evenodd" d="M60.46 62.594l-2.454-2.454 8.588-8.587-8.588-8.589 2.454-2.454 11.042 11.043L60.46 62.594zM44.735 61.963l7.537-22.557h3.471l-7.537 22.557H44.735zM39.529 61.726L28.487 50.685l11.042-11.042 2.454 2.454-8.588 8.588 8.588 8.588L39.529 61.726z" fill="black"></path></svg></g></svg></g></svg></g></svg></g><g></g></svg></g></svg></g><defs><mask></mask></defs><mask><g id="SvgjsG1592"><svg viewBox="0 0 243.58401640649328 247.2" height="247.2" width="243.58401640649328"><g><svg viewBox="0 0 243.58401640649328 247.2" height="247.2" width="243.58401640649328"><g><svg viewBox="0 0 395.52 401.3914600900457" height="247.2" width="243.58401640649328"><g transform="matrix(1,0,0,1,0,236.74839908658612)"><svg viewBox="0 0 395.52 164.64306100345962" height="164.64306100345962" width="395.52"><g id="SvgjsG1591"><svg viewBox="0 0 395.52 164.64306100345962" height="164.64306100345962" width="395.52" id="SvgjsSvg1590"><g><svg viewBox="0 0 395.52 94.29116338207247" height="94.29116338207247" width="395.52"><g transform="matrix(1,0,0,1,0,0)"><svg width="395.52" viewBox="4.7 -37 157.29000000000002 37.5" height="94.29116338207247" data-palette-color="url(#d85785be-43a6-47ac-9d6e-db752953b664)"><path d="M6.9-2.95L24.05-2.95Q24.65-2.95 25.1-2.53 25.55-2.1 25.55-1.5L25.55-1.5Q25.55-0.85 25.1-0.43 24.65 0 24.05 0L24.05 0 6.2 0Q5.55 0 5.13-0.45 4.7-0.9 4.7-1.5L4.7-1.5 4.7-33.5Q4.7-34.1 5.15-34.55 5.6-35 6.3-35L6.3-35Q6.9-35 7.38-34.55 7.85-34.1 7.85-33.5L7.85-33.5 7.85-2.1 6.9-2.95ZM51.3-25.55L51.3-25.55Q51.95-25.55 52.37-25.1 52.8-24.65 52.8-24L52.8-24 52.8-1.5Q52.8-0.9 52.35-0.45 51.9 0 51.3 0L51.3 0Q50.6 0 50.2-0.45 49.8-0.9 49.8-1.5L49.8-1.5 49.8-7.45 50.65-7.85Q50.65-6.45 49.87-5 49.1-3.55 47.75-2.3 46.4-1.05 44.57-0.28 42.75 0.5 40.6 0.5L40.6 0.5Q37.25 0.5 34.57-1.25 31.9-3 30.37-6.05 28.85-9.1 28.85-12.9L28.85-12.9Q28.85-16.8 30.4-19.78 31.95-22.75 34.6-24.45 37.25-26.15 40.55-26.15L40.55-26.15Q42.7-26.15 44.57-25.4 46.45-24.65 47.85-23.35 49.25-22.05 50.05-20.38 50.85-18.7 50.85-16.9L50.85-16.9 49.8-17.65 49.8-24Q49.8-24.65 50.2-25.1 50.6-25.55 51.3-25.55ZM40.9-2.3L40.9-2.3Q43.55-2.3 45.6-3.68 47.65-5.05 48.82-7.48 50-9.9 50-12.9L50-12.9Q50-15.85 48.82-18.2 47.65-20.55 45.6-21.95 43.55-23.35 40.9-23.35L40.9-23.35Q38.3-23.35 36.22-22 34.15-20.65 32.97-18.3 31.8-15.95 31.8-12.9L31.8-12.9Q31.8-9.9 32.95-7.48 34.1-5.05 36.17-3.68 38.25-2.3 40.9-2.3ZM72.7-26.15L72.7-26.15Q76-26.15 77.97-24.83 79.95-23.5 80.82-21.23 81.7-18.95 81.7-16.2L81.7-16.2 81.7-1.5Q81.7-0.9 81.25-0.45 80.8 0 80.2 0L80.2 0Q79.5 0 79.1-0.45 78.7-0.9 78.7-1.5L78.7-1.5 78.7-16.05Q78.7-18.05 78.05-19.7 77.4-21.35 75.92-22.35 74.45-23.35 72.05-23.35L72.05-23.35Q69.9-23.35 67.97-22.35 66.05-21.35 64.85-19.7 63.65-18.05 63.65-16.05L63.65-16.05 63.65-1.5Q63.65-0.9 63.2-0.45 62.75 0 62.15 0L62.15 0Q61.45 0 61.05-0.45 60.65-0.9 60.65-1.5L60.65-1.5 60.65-23.9Q60.65-24.5 61.07-24.95 61.5-25.4 62.15-25.4L62.15-25.4Q62.8-25.4 63.22-24.95 63.65-24.5 63.65-23.9L63.65-23.9 63.65-19.7 62.5-17.9Q62.6-19.5 63.52-20.98 64.45-22.45 65.9-23.63 67.35-24.8 69.12-25.48 70.9-26.15 72.7-26.15ZM110.29-37L110.29-37Q110.94-37 111.37-36.58 111.79-36.15 111.79-35.5L111.79-35.5 111.79-1.5Q111.79-0.9 111.34-0.45 110.89 0 110.29 0L110.29 0Q109.59 0 109.19-0.45 108.79-0.9 108.79-1.5L108.79-1.5 108.79-7.45 109.64-8.15Q109.64-6.75 108.89-5.23 108.14-3.7 106.77-2.4 105.39-1.1 103.57-0.3 101.74 0.5 99.59 0.5L99.59 0.5Q96.29 0.5 93.62-1.25 90.94-3 89.39-6 87.84-9 87.84-12.85L87.84-12.85Q87.84-16.65 89.39-19.68 90.94-22.7 93.59-24.43 96.24-26.15 99.54-26.15L99.54-26.15Q101.64-26.15 103.49-25.4 105.34-24.65 106.77-23.35 108.19-22.05 109.02-20.38 109.84-18.7 109.84-16.9L109.84-16.9 108.79-17.65 108.79-35.5Q108.79-36.1 109.19-36.55 109.59-37 110.29-37ZM99.89-2.3L99.89-2.3Q102.54-2.3 104.59-3.68 106.64-5.05 107.82-7.43 108.99-9.8 108.99-12.85L108.99-12.85Q108.99-15.85 107.82-18.23 106.64-20.6 104.59-21.98 102.54-23.35 99.89-23.35L99.89-23.35Q97.29-23.35 95.22-21.98 93.14-20.6 91.97-18.23 90.79-15.85 90.79-12.85L90.79-12.85Q90.79-9.85 91.97-7.45 93.14-5.05 95.22-3.68 97.29-2.3 99.89-2.3ZM130.99 0.5L130.99 0.5Q127.14 0.5 124.19-1.15 121.24-2.8 119.59-5.75 117.94-8.7 117.94-12.65L117.94-12.65Q117.94-16.9 119.62-19.9 121.29-22.9 123.97-24.53 126.64-26.15 129.64-26.15L129.64-26.15Q131.84-26.15 133.92-25.38 135.99-24.6 137.59-23.08 139.19-21.55 140.19-19.35 141.19-17.15 141.24-14.25L141.24-14.25Q141.24-13.65 140.79-13.23 140.34-12.8 139.74-12.8L139.74-12.8 119.69-12.8 119.09-15.5 138.79-15.5 138.14-14.9 138.14-15.9Q137.89-18.25 136.59-19.9 135.29-21.55 133.47-22.4 131.64-23.25 129.64-23.25L129.64-23.25Q128.14-23.25 126.57-22.65 124.99-22.05 123.72-20.78 122.44-19.5 121.64-17.53 120.84-15.55 120.84-12.85L120.84-12.85Q120.84-9.9 122.04-7.5 123.24-5.1 125.49-3.7 127.74-2.3 130.94-2.3L130.94-2.3Q132.64-2.3 134.04-2.8 135.44-3.3 136.52-4.13 137.59-4.95 138.29-5.85L138.29-5.85Q138.84-6.3 139.34-6.3L139.34-6.3Q139.89-6.3 140.27-5.9 140.64-5.5 140.64-5L140.64-5Q140.64-4.4 140.14-3.95L140.14-3.95Q138.64-2.15 136.24-0.83 133.84 0.5 130.99 0.5ZM148.94 0L148.94 0Q148.24 0 147.84-0.45 147.44-0.9 147.44-1.5L147.44-1.5 147.44-23.9Q147.44-24.5 147.86-24.95 148.29-25.4 148.94-25.4L148.94-25.4Q149.59-25.4 150.01-24.95 150.44-24.5 150.44-23.9L150.44-23.9 150.44-16.4 149.69-16.25Q149.84-18 150.56-19.73 151.29-21.45 152.54-22.9 153.79-24.35 155.51-25.25 157.24-26.15 159.39-26.15L159.39-26.15Q160.29-26.15 161.14-25.78 161.99-25.4 161.99-24.55L161.99-24.55Q161.99-23.8 161.59-23.4 161.19-23 160.64-23L160.64-23Q160.19-23 159.66-23.25 159.14-23.5 158.29-23.5L158.29-23.5Q156.89-23.5 155.49-22.68 154.09-21.85 152.94-20.45 151.79-19.05 151.11-17.32 150.44-15.6 150.44-13.85L150.44-13.85 150.44-1.5Q150.44-0.9 149.99-0.45 149.54 0 148.94 0Z" opacity="1" transform="matrix(1,0,0,1,0,0)" fill="black" class="wordmark-text-0" id="SvgjsPath1589"></path></svg></g></svg></g><g transform="matrix(1,0,0,1,0,116.55104406865861)"><svg viewBox="0 0 395.52 48.09201693480101" height="48.09201693480101" width="395.52"><g transform="matrix(1,0,0,1,0,0)"><svg width="395.52" viewBox="3.85 -35.35 295.21999999999997 35.9" height="48.09201693480101" data-palette-color="url(#961166fd-6f80-4978-a544-a6047a083c41)"><path d="M20.6-18.2L20.6-14.65 7.9-14.65 7.9 0 3.85 0 3.85-33.7 22.35-33.7 22.35-30.15 7.9-30.15 7.9-18.2 20.6-18.2ZM47.8-25.35L47.8 0 43.85 0 43.85-4.4Q41.85 0.3 35.9 0.3L35.9 0.3Q32.15 0.3 29.97-1.93 27.8-4.15 27.8-7.9L27.8-7.9 27.8-25.35 31.75-25.35 31.75-8.9Q31.75-6.15 33.15-4.7 34.55-3.25 36.95-3.25L36.95-3.25Q40.1-3.25 41.97-5.45 43.85-7.65 43.85-11.4L43.85-11.4 43.85-25.35 47.8-25.35ZM59.25-35.35L59.25 0 55.3 0 55.3-35.35 59.25-35.35ZM70.89-35.35L70.89 0 66.94 0 66.94-35.35 70.89-35.35ZM110.29-8.95L110.29-8.95Q110.29-4.5 107.24-2.08 104.19 0.35 99.39 0.35L99.39 0.35Q94.09 0.35 90.39-1.8L90.39-1.8 90.39-6.15Q94.04-3.4 99.29-3.4L99.29-3.4Q102.44-3.4 104.24-4.8 106.04-6.2 106.04-8.85L106.04-8.85Q106.04-9.95 105.61-10.83 105.19-11.7 104.21-12.43 103.24-13.15 102.36-13.63 101.49-14.1 99.99-14.8L99.99-14.8Q99.69-14.95 99.09-15.2L99.09-15.2Q96.94-16.15 95.81-16.75 94.69-17.35 93.16-18.53 91.64-19.7 90.94-21.25 90.24-22.8 90.24-24.85L90.24-24.85Q90.24-29.15 93.31-31.58 96.39-34 101.04-34L101.04-34Q105.39-34 108.44-32.45L108.44-32.45 108.44-28.2Q105.39-30.2 101.14-30.2L101.14-30.2Q98.09-30.2 96.29-28.78 94.49-27.35 94.49-25.05L94.49-25.05Q94.49-23.85 94.96-22.9 95.44-21.95 96.64-21.13 97.84-20.3 98.69-19.88 99.54-19.45 101.34-18.65L101.34-18.65Q103.04-17.9 103.94-17.48 104.84-17.05 106.26-16.13 107.69-15.2 108.41-14.33 109.14-13.45 109.71-12.03 110.29-10.6 110.29-8.95ZM129.49-4.4L129.49-0.65Q127.84 0.25 125.79 0.25L125.79 0.25Q118.29 0.25 118.29-7.4L118.29-7.4 118.29-22.15 114.24-22.15 114.24-25.35 118.29-25.35 118.29-31.65 122.24-31.65 122.24-25.35 129.24-25.35 129.24-22.15 122.24-22.15 122.24-7.3Q122.24-3.25 126.04-3.25L126.04-3.25Q127.99-3.25 129.49-4.4L129.49-4.4ZM142.98-3.05L142.98-3.05Q145.68-3.05 147.28-4.58 148.88-6.1 148.88-8.45L148.88-8.45 148.88-11.7 144.48-11.7Q141.28-11.7 139.68-10.45 138.08-9.2 138.08-7.3 138.08-5.4 139.33-4.23 140.58-3.05 142.98-3.05ZM148.93 0L148.93-3Q146.98 0.25 141.83 0.25L141.83 0.25Q138.28 0.25 136.11-1.85 133.93-3.95 133.93-7.15L133.93-7.15Q133.93-10.8 136.71-12.83 139.48-14.85 144.28-14.85L144.28-14.85 148.88-14.85 148.88-16.15Q148.88-19.15 147.53-20.68 146.18-22.2 142.98-22.2L142.98-22.2Q138.93-22.2 135.78-20.05L135.78-20.05 135.78-24Q138.63-25.75 143.28-25.75L143.28-25.75Q152.83-25.75 152.83-16.05L152.83-16.05 152.83 0 148.93 0ZM177.28-4.65L177.28-0.9Q174.88 0.55 171.38 0.55L171.38 0.55Q165.38 0.55 161.86-3.28 158.33-7.1 158.33-12.6L158.33-12.6Q158.33-18 161.86-21.9 165.38-25.8 171.48-25.8L171.48-25.8Q174.73-25.8 177.28-24.4L177.28-24.4 177.28-20.65Q174.98-22.2 171.88-22.2L171.88-22.2Q167.58-22.2 165-19.43 162.43-16.65 162.43-12.55L162.43-12.55Q162.48-8.45 164.93-5.73 167.38-3 171.88-3L171.88-3Q174.78-3 177.28-4.65L177.28-4.65ZM187.28-35.15L187.28 0 183.38 0 183.38-35.15 187.28-35.15ZM202.43-25.35L192.43-13.3 202.73 0 197.98 0 187.78-13.3 197.73-25.35 202.43-25.35ZM229.97 0L229.97 0 219.77 0 219.77-33.7 229.77-33.7Q237.22-33.7 242-29.08 246.77-24.45 246.77-17.1L246.77-17.1Q246.77-9.8 242.35-4.9 237.92 0 229.97 0ZM229.72-30.1L229.72-30.1 223.87-30.1 223.87-3.55 229.92-3.55Q236.17-3.55 239.37-7.43 242.57-11.3 242.57-17.1L242.57-17.1Q242.57-22.6 239-26.35 235.42-30.1 229.72-30.1ZM271.12-5L271.12-1.3Q268.17 0.25 263.92 0.25L263.92 0.25Q258.17 0.25 254.65-3.28 251.12-6.8 251.12-12.6L251.12-12.6Q251.12-18.65 254.27-22.15 257.42-25.65 262.37-25.65L262.37-25.65Q267.12-25.65 269.92-22.6 272.72-19.55 272.72-13.95L272.72-13.95Q272.72-12.35 272.47-11L272.47-11 255.17-11Q255.62-7.25 258.02-5.25 260.42-3.25 264.32-3.25L264.32-3.25Q268.57-3.25 271.12-5L271.12-5ZM262.37-22.2L262.37-22.2Q259.52-22.2 257.52-20.15 255.52-18.1 255.17-14.3L255.17-14.3 268.77-14.3 268.77-15.3Q268.77-18.45 267.07-20.33 265.37-22.2 262.37-22.2ZM299.07-25.35L290.02 0 285.17 0 276.32-25.35 280.42-25.35 283.92-14.65 287.62-3.1Q288.07-5.25 291.37-14.65L291.37-14.65 294.97-25.35 299.07-25.35Z" opacity="1" transform="matrix(1,0,0,1,0,0)" fill="black" class="slogan-text-1" id="SvgjsPath1588"></path></svg></g></svg></g></svg></g></svg></g><g transform="matrix(1,0,0,1,90.5157408,0)"><svg viewBox="0 0 214.48851839999998 214.48851839999998" height="214.48851839999998" width="214.48851839999998"><g><svg></svg></g><g id="SvgjsG1587"><svg viewBox="0 0 214.48851839999998 214.48851839999998" height="214.48851839999998" width="214.48851839999998"><g><rect width="195.02567136" height="195.02567136" x="9.731423519999993" y="9.731423519999993" fill="black"></rect><rect width="195.02567136" height="195.02567136" x="-5.329070518200751e-15" y="19.462847039999993" fill="black" opacity="0.5"></rect></g><g transform="matrix(1,0,0,1,29.812768300660593,27.80406719999999)"><svg viewBox="0 0 154.8629817986788 158.880384" height="158.880384" width="154.8629817986788"><g><svg xmlns="http://www.w3.org/2000/svg" xmlns:xlink="http://www.w3.org/1999/xlink" version="1.1" x="0" y="0" viewBox="5.637740379986418 5.999 87.72526144487975 90.001" enable-background="new 0 0 100 100" xml:space="preserve" height="158.880384" width="154.8629817986788" class="icon-cg-0" data-fill-palette-color="quaternary" id="SvgjsSvg1586"><g fill="black"><path d="M58.203 96H40.796c-2.211 0-4.011-1.8-4.011-4.011v-7.236c0-0.358-0.744-0.91-1.94-1.438l-0.194-0.09c-2.285-1.021-4.509-2.359-6.563-3.955-0.524-0.407-1.227-0.518-1.633-0.281l-6.016 3.473c-2.092 1.207-4.493 0.42-5.558-1.424L6.177 65.962c-0.536-0.928-0.678-2.008-0.401-3.043 0.278-1.036 0.941-1.901 1.87-2.437l0.938 1.286L7.787 60.4l0.414-0.238 0.912 1.301L8.32 60.094l4.765-2.75c1.446-0.84 1.446-0.84 1.32-1.739-0.201-1.366-0.29-2.776-0.29-4.503v-0.203c0-1.726 0.089-3.136 0.281-4.435l0.013-0.094c0.122-0.874 0.122-0.874-1.377-1.743l-4.709-2.719 0.696-1.425-0.79 1.371-0.44-0.254 0.699-1.423-0.843 1.34c-1.914-1.105-2.573-3.563-1.467-5.478l8.704-15.076c0.714-1.238 2.046-2.006 3.476-2.006 0.701 0 1.394 0.186 2.003 0.537l6.111 3.528c0.409 0.223 1.1 0.11 1.617-0.292 2.052-1.594 4.277-2.933 6.612-3.979l0.145-0.066c1.196-0.528 1.94-1.079 1.94-1.438v-7.236c0-2.212 1.8-4.012 4.011-4.012h17.407c2.212 0 4.011 1.8 4.011 4.012v7.236c0 0.358 0.745 0.909 1.942 1.438l0.171 0.079c2.323 1.042 4.538 2.376 6.586 3.966 0.516 0.401 1.205 0.513 1.616 0.292l6.083-3.512c2.022-1.147 4.446-0.383 5.508 1.451l8.703 15.077c1.104 1.916 0.446 4.373-1.469 5.479l-4.01 2.316-0.901-1.308 0.794 1.369-1.223 0.707c-1.544 0.895-1.544 0.895-1.418 1.795l0.016 0.116c0.188 1.314 0.272 2.698 0.272 4.387L84.884 51l0.001 0.102c0 1.72-0.088 3.123-0.277 4.413l-0.001 0.016c-0.136 0.975-0.136 0.975 1.362 1.844l1.269 0.732-0.692 1.426 0.794-1.368 3.341 1.929-0.698 1.425 0.79-1.372 0.605 0.351c0.905 0.521 1.569 1.387 1.846 2.423 0.278 1.035 0.136 2.115-0.399 3.043L84.12 81.037c-0.715 1.238-2.048 2.006-3.478 2.006-0.701 0-1.394-0.186-2.003-0.537l-6.084-3.513c-0.436-0.252-1.119-0.13-1.642 0.275-2.041 1.585-4.247 2.915-6.558 3.954l-0.227 0.103c-1.171 0.518-1.916 1.069-1.916 1.428v7.236C62.214 94.2 60.415 96 58.203 96zM36.123 80.419c1.643 0.727 3.827 1.965 3.827 4.334v7.236c0 0.466 0.379 0.847 0.846 0.847h17.407c0.467 0 0.848-0.381 0.848-0.847v-7.236c0-2.369 2.185-3.607 3.827-4.334l0.129-0.06c2.102-0.939 4.107-2.147 5.965-3.589 1.52-1.182 3.647-1.392 5.153-0.525l2.512 1.449-0.679 1.437 0.785-1.373 1.374 0.793-0.645 1.454 0.791-1.37 1.941 1.121c0.173 0.092 0.303 0.123 0.438 0.123 0.304 0 0.586-0.163 0.736-0.425l8.703-15.074c0.113-0.196 0.144-0.424 0.084-0.643-0.058-0.218-0.197-0.4-0.394-0.514l-5.343-3.085c-2.381-1.38-3.312-2.363-2.978-4.897l0.016-0.122c0.174-1.184 0.253-2.446 0.253-4.018L81.72 51l0.001-0.102c0-1.571-0.079-2.834-0.247-3.974l-0.018-0.145c-0.353-2.541 0.576-3.529 2.926-4.891l1.577-0.911 0.891 1.312-0.792-1.369 3.04-1.755 0.884 1.316-0.789-1.371 0.523-0.303c0.46-0.266 0.6-0.785 0.366-1.19l-8.703-15.075c-0.227-0.393-0.754-0.542-1.157-0.31l-3.479 2.008-0.84-1.342 0.75 1.394-2.604 1.5v0c-1.617 0.865-3.599 0.585-5.077-0.565-1.854-1.439-3.859-2.646-5.96-3.586l-0.085-0.041c-1.696-0.75-3.876-1.988-3.876-4.354v-7.236c0-0.467-0.381-0.847-0.848-0.847H40.796c-0.467 0-0.846 0.379-0.846 0.847v7.236c0 2.369-2.184 3.607-3.827 4.333l-0.75-1.397 0.655 1.44c-2.139 0.958-4.146 2.166-5.999 3.605-1.52 1.182-3.648 1.392-5.153 0.526l-2.513-1.451 0.679-1.436-0.785 1.374-3.413-1.971c-0.197-0.114-0.338-0.152-0.487-0.152-0.303 0-0.584 0.163-0.735 0.424L8.917 37.62c-0.113 0.196-0.143 0.425-0.084 0.643s0.199 0.4 0.394 0.514l5.34 3.083c2.408 1.396 3.334 2.386 2.971 4.977l-0.014 0.099c-0.167 1.133-0.245 2.396-0.245 3.964l0.001 0.125c-0.001 1.646 0.077 2.909 0.245 4.052l0.014 0.107c0.362 2.573-0.565 3.562-2.921 4.929L9.285 63.19c-0.253 0.146-0.393 0.329-0.452 0.547-0.059 0.219-0.029 0.446 0.084 0.642l8.705 15.076c0.228 0.396 0.756 0.541 1.157 0.311l3.479-2.009 0.841 1.341-0.73-1.405 2.578-1.485c0.553-0.32 1.282-0.511 2.039-0.511 1.072 0 2.153 0.382 3.044 1.074 1.844 1.434 3.839 2.636 5.931 3.574l0.087 0.041-0.129 0.271-0.434 1.211L36.123 80.419z" fill="black"></path></g><g fill="black"><path d="M49.5 78.996c-15.382 0-27.896-12.513-27.896-27.895 0-15.382 12.514-27.896 27.896-27.896s27.896 12.514 27.896 27.896C77.396 66.483 64.882 78.996 49.5 78.996zM49.5 26.37c-13.637 0-24.731 11.095-24.731 24.732 0 13.637 11.094 24.731 24.731 24.731 13.638 0 24.732-11.095 24.732-24.731C74.232 37.464 63.138 26.37 49.5 26.37z" fill="black"></path></g><path fill-rule="evenodd" clip-rule="evenodd" d="M60.46 62.594l-2.454-2.454 8.588-8.587-8.588-8.589 2.454-2.454 11.042 11.043L60.46 62.594zM44.735 61.963l7.537-22.557h3.471l-7.537 22.557H44.735zM39.529 61.726L28.487 50.685l11.042-11.042 2.454 2.454-8.588 8.588 8.588 8.588L39.529 61.726z" fill="black"></path></svg></g></svg></g></svg></g></svg></g><g></g></svg></g></svg></g><defs><mask></mask></defs></svg><rect width="243.58401640649328" height="247.2" fill="black" stroke="none" visibility="hidden"></rect></g></mask></svg><rect width="243.58401640649328" height="247.2" fill="black" stroke="none" visibility="hidden"></rect></g></mask><linearGradient x1="0.054" x2="0.941" y1="0.5" y2="0.5" id="961166fd-6f80-4978-a544-a6047a083c41"><stop stop-color="#0f3054" offset="0"></stop><stop stop-color="#3b8dcb" offset="0.498"></stop><stop stop-color="#0f3054" offset="1"></stop></linearGradient><rect width="243.58401640649328" height="247.2" fill="url(#961166fd-6f80-4978-a544-a6047a083c41)" mask="url(#9c8e40f0-0295-4e9d-a3cd-22ca89009e85)" data-fill-palette-color="secondary"></rect><mask id="c2318242-bd8d-4f58-b2f4-4ce5d99ece63"><g id="SvgjsG1623"><svg viewBox="0 0 243.58401640649328 247.2" height="247.2" width="243.58401640649328"><g><svg viewBox="0 0 243.58401640649328 247.2" height="247.2" width="243.58401640649328"><g><svg viewBox="0 0 395.52 401.3914600900457" height="247.2" width="243.58401640649328"><g transform="matrix(1,0,0,1,0,236.74839908658612)"><svg viewBox="0 0 395.52 164.64306100345962" height="164.64306100345962" width="395.52"><g id="SvgjsG1622"><svg viewBox="0 0 395.52 164.64306100345962" height="164.64306100345962" width="395.52" id="SvgjsSvg1621"><g><svg viewBox="0 0 395.52 94.29116338207247" height="94.29116338207247" width="395.52"><g transform="matrix(1,0,0,1,0,0)"><svg width="395.52" viewBox="4.7 -37 157.29000000000002 37.5" height="94.29116338207247" data-palette-color="url(#d85785be-43a6-47ac-9d6e-db752953b664)"></svg></g></svg></g><g transform="matrix(1,0,0,1,0,116.55104406865861)"><svg viewBox="0 0 395.52 48.09201693480101" height="48.09201693480101" width="395.52"><g transform="matrix(1,0,0,1,0,0)"><svg width="395.52" viewBox="3.85 -35.35 295.21999999999997 35.9" height="48.09201693480101" data-palette-color="url(#961166fd-6f80-4978-a544-a6047a083c41)"></svg></g></svg></g></svg></g></svg></g><g transform="matrix(1,0,0,1,90.5157408,0)"><svg viewBox="0 0 214.48851839999998 214.48851839999998" height="214.48851839999998" width="214.48851839999998"><g><svg></svg></g><g id="SvgjsG1620"><svg viewBox="0 0 214.48851839999998 214.48851839999998" height="214.48851839999998" width="214.48851839999998"><g><rect width="195.02567136" height="195.02567136" x="9.731423519999993" y="9.731423519999993" fill="white"></rect><rect width="195.02567136" height="195.02567136" x="-5.329070518200751e-15" y="19.462847039999993" fill="white" opacity="0.5"></rect></g><g transform="matrix(1,0,0,1,29.812768300660593,27.80406719999999)"><svg viewBox="0 0 154.8629817986788 158.880384" height="158.880384" width="154.8629817986788"><g><svg xmlns="http://www.w3.org/2000/svg" xmlns:xlink="http://www.w3.org/1999/xlink" version="1.1" x="0" y="0" viewBox="5.637740379986418 5.999 87.72526144487975 90.001" enable-background="new 0 0 100 100" xml:space="preserve" height="158.880384" width="154.8629817986788" class="icon-cg-0" data-fill-palette-color="quaternary" id="SvgjsSvg1619"><g fill="black"><path d="M58.203 96H40.796c-2.211 0-4.011-1.8-4.011-4.011v-7.236c0-0.358-0.744-0.91-1.94-1.438l-0.194-0.09c-2.285-1.021-4.509-2.359-6.563-3.955-0.524-0.407-1.227-0.518-1.633-0.281l-6.016 3.473c-2.092 1.207-4.493 0.42-5.558-1.424L6.177 65.962c-0.536-0.928-0.678-2.008-0.401-3.043 0.278-1.036 0.941-1.901 1.87-2.437l0.938 1.286L7.787 60.4l0.414-0.238 0.912 1.301L8.32 60.094l4.765-2.75c1.446-0.84 1.446-0.84 1.32-1.739-0.201-1.366-0.29-2.776-0.29-4.503v-0.203c0-1.726 0.089-3.136 0.281-4.435l0.013-0.094c0.122-0.874 0.122-0.874-1.377-1.743l-4.709-2.719 0.696-1.425-0.79 1.371-0.44-0.254 0.699-1.423-0.843 1.34c-1.914-1.105-2.573-3.563-1.467-5.478l8.704-15.076c0.714-1.238 2.046-2.006 3.476-2.006 0.701 0 1.394 0.186 2.003 0.537l6.111 3.528c0.409 0.223 1.1 0.11 1.617-0.292 2.052-1.594 4.277-2.933 6.612-3.979l0.145-0.066c1.196-0.528 1.94-1.079 1.94-1.438v-7.236c0-2.212 1.8-4.012 4.011-4.012h17.407c2.212 0 4.011 1.8 4.011 4.012v7.236c0 0.358 0.745 0.909 1.942 1.438l0.171 0.079c2.323 1.042 4.538 2.376 6.586 3.966 0.516 0.401 1.205 0.513 1.616 0.292l6.083-3.512c2.022-1.147 4.446-0.383 5.508 1.451l8.703 15.077c1.104 1.916 0.446 4.373-1.469 5.479l-4.01 2.316-0.901-1.308 0.794 1.369-1.223 0.707c-1.544 0.895-1.544 0.895-1.418 1.795l0.016 0.116c0.188 1.314 0.272 2.698 0.272 4.387L84.884 51l0.001 0.102c0 1.72-0.088 3.123-0.277 4.413l-0.001 0.016c-0.136 0.975-0.136 0.975 1.362 1.844l1.269 0.732-0.692 1.426 0.794-1.368 3.341 1.929-0.698 1.425 0.79-1.372 0.605 0.351c0.905 0.521 1.569 1.387 1.846 2.423 0.278 1.035 0.136 2.115-0.399 3.043L84.12 81.037c-0.715 1.238-2.048 2.006-3.478 2.006-0.701 0-1.394-0.186-2.003-0.537l-6.084-3.513c-0.436-0.252-1.119-0.13-1.642 0.275-2.041 1.585-4.247 2.915-6.558 3.954l-0.227 0.103c-1.171 0.518-1.916 1.069-1.916 1.428v7.236C62.214 94.2 60.415 96 58.203 96zM36.123 80.419c1.643 0.727 3.827 1.965 3.827 4.334v7.236c0 0.466 0.379 0.847 0.846 0.847h17.407c0.467 0 0.848-0.381 0.848-0.847v-7.236c0-2.369 2.185-3.607 3.827-4.334l0.129-0.06c2.102-0.939 4.107-2.147 5.965-3.589 1.52-1.182 3.647-1.392 5.153-0.525l2.512 1.449-0.679 1.437 0.785-1.373 1.374 0.793-0.645 1.454 0.791-1.37 1.941 1.121c0.173 0.092 0.303 0.123 0.438 0.123 0.304 0 0.586-0.163 0.736-0.425l8.703-15.074c0.113-0.196 0.144-0.424 0.084-0.643-0.058-0.218-0.197-0.4-0.394-0.514l-5.343-3.085c-2.381-1.38-3.312-2.363-2.978-4.897l0.016-0.122c0.174-1.184 0.253-2.446 0.253-4.018L81.72 51l0.001-0.102c0-1.571-0.079-2.834-0.247-3.974l-0.018-0.145c-0.353-2.541 0.576-3.529 2.926-4.891l1.577-0.911 0.891 1.312-0.792-1.369 3.04-1.755 0.884 1.316-0.789-1.371 0.523-0.303c0.46-0.266 0.6-0.785 0.366-1.19l-8.703-15.075c-0.227-0.393-0.754-0.542-1.157-0.31l-3.479 2.008-0.84-1.342 0.75 1.394-2.604 1.5v0c-1.617 0.865-3.599 0.585-5.077-0.565-1.854-1.439-3.859-2.646-5.96-3.586l-0.085-0.041c-1.696-0.75-3.876-1.988-3.876-4.354v-7.236c0-0.467-0.381-0.847-0.848-0.847H40.796c-0.467 0-0.846 0.379-0.846 0.847v7.236c0 2.369-2.184 3.607-3.827 4.333l-0.75-1.397 0.655 1.44c-2.139 0.958-4.146 2.166-5.999 3.605-1.52 1.182-3.648 1.392-5.153 0.526l-2.513-1.451 0.679-1.436-0.785 1.374-3.413-1.971c-0.197-0.114-0.338-0.152-0.487-0.152-0.303 0-0.584 0.163-0.735 0.424L8.917 37.62c-0.113 0.196-0.143 0.425-0.084 0.643s0.199 0.4 0.394 0.514l5.34 3.083c2.408 1.396 3.334 2.386 2.971 4.977l-0.014 0.099c-0.167 1.133-0.245 2.396-0.245 3.964l0.001 0.125c-0.001 1.646 0.077 2.909 0.245 4.052l0.014 0.107c0.362 2.573-0.565 3.562-2.921 4.929L9.285 63.19c-0.253 0.146-0.393 0.329-0.452 0.547-0.059 0.219-0.029 0.446 0.084 0.642l8.705 15.076c0.228 0.396 0.756 0.541 1.157 0.311l3.479-2.009 0.841 1.341-0.73-1.405 2.578-1.485c0.553-0.32 1.282-0.511 2.039-0.511 1.072 0 2.153 0.382 3.044 1.074 1.844 1.434 3.839 2.636 5.931 3.574l0.087 0.041-0.129 0.271-0.434 1.211L36.123 80.419z" fill="black"></path></g><g fill="black"><path d="M49.5 78.996c-15.382 0-27.896-12.513-27.896-27.895 0-15.382 12.514-27.896 27.896-27.896s27.896 12.514 27.896 27.896C77.396 66.483 64.882 78.996 49.5 78.996zM49.5 26.37c-13.637 0-24.731 11.095-24.731 24.732 0 13.637 11.094 24.731 24.731 24.731 13.638 0 24.732-11.095 24.732-24.731C74.232 37.464 63.138 26.37 49.5 26.37z" fill="black"></path></g><path fill-rule="evenodd" clip-rule="evenodd" d="M60.46 62.594l-2.454-2.454 8.588-8.587-8.588-8.589 2.454-2.454 11.042 11.043L60.46 62.594zM44.735 61.963l7.537-22.557h3.471l-7.537 22.557H44.735zM39.529 61.726L28.487 50.685l11.042-11.042 2.454 2.454-8.588 8.588 8.588 8.588L39.529 61.726z" fill="black"></path></svg></g></svg></g></svg></g></svg></g><g></g></svg></g></svg></g><defs><mask></mask></defs><mask><g id="SvgjsG1618"><svg viewBox="0 0 243.58401640649328 247.2" height="247.2" width="243.58401640649328"><g><svg viewBox="0 0 243.58401640649328 247.2" height="247.2" width="243.58401640649328"><g><svg viewBox="0 0 395.52 401.3914600900457" height="247.2" width="243.58401640649328"><g transform="matrix(1,0,0,1,0,236.74839908658612)"><svg viewBox="0 0 395.52 164.64306100345962" height="164.64306100345962" width="395.52"><g id="SvgjsG1617"><svg viewBox="0 0 395.52 164.64306100345962" height="164.64306100345962" width="395.52" id="SvgjsSvg1616"><g><svg viewBox="0 0 395.52 94.29116338207247" height="94.29116338207247" width="395.52"><g transform="matrix(1,0,0,1,0,0)"><svg width="395.52" viewBox="4.7 -37 157.29000000000002 37.5" height="94.29116338207247" data-palette-color="url(#d85785be-43a6-47ac-9d6e-db752953b664)"><path d="M6.9-2.95L24.05-2.95Q24.65-2.95 25.1-2.53 25.55-2.1 25.55-1.5L25.55-1.5Q25.55-0.85 25.1-0.43 24.65 0 24.05 0L24.05 0 6.2 0Q5.55 0 5.13-0.45 4.7-0.9 4.7-1.5L4.7-1.5 4.7-33.5Q4.7-34.1 5.15-34.55 5.6-35 6.3-35L6.3-35Q6.9-35 7.38-34.55 7.85-34.1 7.85-33.5L7.85-33.5 7.85-2.1 6.9-2.95ZM51.3-25.55L51.3-25.55Q51.95-25.55 52.37-25.1 52.8-24.65 52.8-24L52.8-24 52.8-1.5Q52.8-0.9 52.35-0.45 51.9 0 51.3 0L51.3 0Q50.6 0 50.2-0.45 49.8-0.9 49.8-1.5L49.8-1.5 49.8-7.45 50.65-7.85Q50.65-6.45 49.87-5 49.1-3.55 47.75-2.3 46.4-1.05 44.57-0.28 42.75 0.5 40.6 0.5L40.6 0.5Q37.25 0.5 34.57-1.25 31.9-3 30.37-6.05 28.85-9.1 28.85-12.9L28.85-12.9Q28.85-16.8 30.4-19.78 31.95-22.75 34.6-24.45 37.25-26.15 40.55-26.15L40.55-26.15Q42.7-26.15 44.57-25.4 46.45-24.65 47.85-23.35 49.25-22.05 50.05-20.38 50.85-18.7 50.85-16.9L50.85-16.9 49.8-17.65 49.8-24Q49.8-24.65 50.2-25.1 50.6-25.55 51.3-25.55ZM40.9-2.3L40.9-2.3Q43.55-2.3 45.6-3.68 47.65-5.05 48.82-7.48 50-9.9 50-12.9L50-12.9Q50-15.85 48.82-18.2 47.65-20.55 45.6-21.95 43.55-23.35 40.9-23.35L40.9-23.35Q38.3-23.35 36.22-22 34.15-20.65 32.97-18.3 31.8-15.95 31.8-12.9L31.8-12.9Q31.8-9.9 32.95-7.48 34.1-5.05 36.17-3.68 38.25-2.3 40.9-2.3ZM72.7-26.15L72.7-26.15Q76-26.15 77.97-24.83 79.95-23.5 80.82-21.23 81.7-18.95 81.7-16.2L81.7-16.2 81.7-1.5Q81.7-0.9 81.25-0.45 80.8 0 80.2 0L80.2 0Q79.5 0 79.1-0.45 78.7-0.9 78.7-1.5L78.7-1.5 78.7-16.05Q78.7-18.05 78.05-19.7 77.4-21.35 75.92-22.35 74.45-23.35 72.05-23.35L72.05-23.35Q69.9-23.35 67.97-22.35 66.05-21.35 64.85-19.7 63.65-18.05 63.65-16.05L63.65-16.05 63.65-1.5Q63.65-0.9 63.2-0.45 62.75 0 62.15 0L62.15 0Q61.45 0 61.05-0.45 60.65-0.9 60.65-1.5L60.65-1.5 60.65-23.9Q60.65-24.5 61.07-24.95 61.5-25.4 62.15-25.4L62.15-25.4Q62.8-25.4 63.22-24.95 63.65-24.5 63.65-23.9L63.65-23.9 63.65-19.7 62.5-17.9Q62.6-19.5 63.52-20.98 64.45-22.45 65.9-23.63 67.35-24.8 69.12-25.48 70.9-26.15 72.7-26.15ZM110.29-37L110.29-37Q110.94-37 111.37-36.58 111.79-36.15 111.79-35.5L111.79-35.5 111.79-1.5Q111.79-0.9 111.34-0.45 110.89 0 110.29 0L110.29 0Q109.59 0 109.19-0.45 108.79-0.9 108.79-1.5L108.79-1.5 108.79-7.45 109.64-8.15Q109.64-6.75 108.89-5.23 108.14-3.7 106.77-2.4 105.39-1.1 103.57-0.3 101.74 0.5 99.59 0.5L99.59 0.5Q96.29 0.5 93.62-1.25 90.94-3 89.39-6 87.84-9 87.84-12.85L87.84-12.85Q87.84-16.65 89.39-19.68 90.94-22.7 93.59-24.43 96.24-26.15 99.54-26.15L99.54-26.15Q101.64-26.15 103.49-25.4 105.34-24.65 106.77-23.35 108.19-22.05 109.02-20.38 109.84-18.7 109.84-16.9L109.84-16.9 108.79-17.65 108.79-35.5Q108.79-36.1 109.19-36.55 109.59-37 110.29-37ZM99.89-2.3L99.89-2.3Q102.54-2.3 104.59-3.68 106.64-5.05 107.82-7.43 108.99-9.8 108.99-12.85L108.99-12.85Q108.99-15.85 107.82-18.23 106.64-20.6 104.59-21.98 102.54-23.35 99.89-23.35L99.89-23.35Q97.29-23.35 95.22-21.98 93.14-20.6 91.97-18.23 90.79-15.85 90.79-12.85L90.79-12.85Q90.79-9.85 91.97-7.45 93.14-5.05 95.22-3.68 97.29-2.3 99.89-2.3ZM130.99 0.5L130.99 0.5Q127.14 0.5 124.19-1.15 121.24-2.8 119.59-5.75 117.94-8.7 117.94-12.65L117.94-12.65Q117.94-16.9 119.62-19.9 121.29-22.9 123.97-24.53 126.64-26.15 129.64-26.15L129.64-26.15Q131.84-26.15 133.92-25.38 135.99-24.6 137.59-23.08 139.19-21.55 140.19-19.35 141.19-17.15 141.24-14.25L141.24-14.25Q141.24-13.65 140.79-13.23 140.34-12.8 139.74-12.8L139.74-12.8 119.69-12.8 119.09-15.5 138.79-15.5 138.14-14.9 138.14-15.9Q137.89-18.25 136.59-19.9 135.29-21.55 133.47-22.4 131.64-23.25 129.64-23.25L129.64-23.25Q128.14-23.25 126.57-22.65 124.99-22.05 123.72-20.78 122.44-19.5 121.64-17.53 120.84-15.55 120.84-12.85L120.84-12.85Q120.84-9.9 122.04-7.5 123.24-5.1 125.49-3.7 127.74-2.3 130.94-2.3L130.94-2.3Q132.64-2.3 134.04-2.8 135.44-3.3 136.52-4.13 137.59-4.95 138.29-5.85L138.29-5.85Q138.84-6.3 139.34-6.3L139.34-6.3Q139.89-6.3 140.27-5.9 140.64-5.5 140.64-5L140.64-5Q140.64-4.4 140.14-3.95L140.14-3.95Q138.64-2.15 136.24-0.83 133.84 0.5 130.99 0.5ZM148.94 0L148.94 0Q148.24 0 147.84-0.45 147.44-0.9 147.44-1.5L147.44-1.5 147.44-23.9Q147.44-24.5 147.86-24.95 148.29-25.4 148.94-25.4L148.94-25.4Q149.59-25.4 150.01-24.95 150.44-24.5 150.44-23.9L150.44-23.9 150.44-16.4 149.69-16.25Q149.84-18 150.56-19.73 151.29-21.45 152.54-22.9 153.79-24.35 155.51-25.25 157.24-26.15 159.39-26.15L159.39-26.15Q160.29-26.15 161.14-25.78 161.99-25.4 161.99-24.55L161.99-24.55Q161.99-23.8 161.59-23.4 161.19-23 160.64-23L160.64-23Q160.19-23 159.66-23.25 159.14-23.5 158.29-23.5L158.29-23.5Q156.89-23.5 155.49-22.68 154.09-21.85 152.94-20.45 151.79-19.05 151.11-17.32 150.44-15.6 150.44-13.85L150.44-13.85 150.44-1.5Q150.44-0.9 149.99-0.45 149.54 0 148.94 0Z" opacity="1" transform="matrix(1,0,0,1,0,0)" fill="black" class="wordmark-text-0" id="SvgjsPath1615"></path></svg></g></svg></g><g transform="matrix(1,0,0,1,0,116.55104406865861)"><svg viewBox="0 0 395.52 48.09201693480101" height="48.09201693480101" width="395.52"><g transform="matrix(1,0,0,1,0,0)"><svg width="395.52" viewBox="3.85 -35.35 295.21999999999997 35.9" height="48.09201693480101" data-palette-color="url(#961166fd-6f80-4978-a544-a6047a083c41)"><path d="M20.6-18.2L20.6-14.65 7.9-14.65 7.9 0 3.85 0 3.85-33.7 22.35-33.7 22.35-30.15 7.9-30.15 7.9-18.2 20.6-18.2ZM47.8-25.35L47.8 0 43.85 0 43.85-4.4Q41.85 0.3 35.9 0.3L35.9 0.3Q32.15 0.3 29.97-1.93 27.8-4.15 27.8-7.9L27.8-7.9 27.8-25.35 31.75-25.35 31.75-8.9Q31.75-6.15 33.15-4.7 34.55-3.25 36.95-3.25L36.95-3.25Q40.1-3.25 41.97-5.45 43.85-7.65 43.85-11.4L43.85-11.4 43.85-25.35 47.8-25.35ZM59.25-35.35L59.25 0 55.3 0 55.3-35.35 59.25-35.35ZM70.89-35.35L70.89 0 66.94 0 66.94-35.35 70.89-35.35ZM110.29-8.95L110.29-8.95Q110.29-4.5 107.24-2.08 104.19 0.35 99.39 0.35L99.39 0.35Q94.09 0.35 90.39-1.8L90.39-1.8 90.39-6.15Q94.04-3.4 99.29-3.4L99.29-3.4Q102.44-3.4 104.24-4.8 106.04-6.2 106.04-8.85L106.04-8.85Q106.04-9.95 105.61-10.83 105.19-11.7 104.21-12.43 103.24-13.15 102.36-13.63 101.49-14.1 99.99-14.8L99.99-14.8Q99.69-14.95 99.09-15.2L99.09-15.2Q96.94-16.15 95.81-16.75 94.69-17.35 93.16-18.53 91.64-19.7 90.94-21.25 90.24-22.8 90.24-24.85L90.24-24.85Q90.24-29.15 93.31-31.58 96.39-34 101.04-34L101.04-34Q105.39-34 108.44-32.45L108.44-32.45 108.44-28.2Q105.39-30.2 101.14-30.2L101.14-30.2Q98.09-30.2 96.29-28.78 94.49-27.35 94.49-25.05L94.49-25.05Q94.49-23.85 94.96-22.9 95.44-21.95 96.64-21.13 97.84-20.3 98.69-19.88 99.54-19.45 101.34-18.65L101.34-18.65Q103.04-17.9 103.94-17.48 104.84-17.05 106.26-16.13 107.69-15.2 108.41-14.33 109.14-13.45 109.71-12.03 110.29-10.6 110.29-8.95ZM129.49-4.4L129.49-0.65Q127.84 0.25 125.79 0.25L125.79 0.25Q118.29 0.25 118.29-7.4L118.29-7.4 118.29-22.15 114.24-22.15 114.24-25.35 118.29-25.35 118.29-31.65 122.24-31.65 122.24-25.35 129.24-25.35 129.24-22.15 122.24-22.15 122.24-7.3Q122.24-3.25 126.04-3.25L126.04-3.25Q127.99-3.25 129.49-4.4L129.49-4.4ZM142.98-3.05L142.98-3.05Q145.68-3.05 147.28-4.58 148.88-6.1 148.88-8.45L148.88-8.45 148.88-11.7 144.48-11.7Q141.28-11.7 139.68-10.45 138.08-9.2 138.08-7.3 138.08-5.4 139.33-4.23 140.58-3.05 142.98-3.05ZM148.93 0L148.93-3Q146.98 0.25 141.83 0.25L141.83 0.25Q138.28 0.25 136.11-1.85 133.93-3.95 133.93-7.15L133.93-7.15Q133.93-10.8 136.71-12.83 139.48-14.85 144.28-14.85L144.28-14.85 148.88-14.85 148.88-16.15Q148.88-19.15 147.53-20.68 146.18-22.2 142.98-22.2L142.98-22.2Q138.93-22.2 135.78-20.05L135.78-20.05 135.78-24Q138.63-25.75 143.28-25.75L143.28-25.75Q152.83-25.75 152.83-16.05L152.83-16.05 152.83 0 148.93 0ZM177.28-4.65L177.28-0.9Q174.88 0.55 171.38 0.55L171.38 0.55Q165.38 0.55 161.86-3.28 158.33-7.1 158.33-12.6L158.33-12.6Q158.33-18 161.86-21.9 165.38-25.8 171.48-25.8L171.48-25.8Q174.73-25.8 177.28-24.4L177.28-24.4 177.28-20.65Q174.98-22.2 171.88-22.2L171.88-22.2Q167.58-22.2 165-19.43 162.43-16.65 162.43-12.55L162.43-12.55Q162.48-8.45 164.93-5.73 167.38-3 171.88-3L171.88-3Q174.78-3 177.28-4.65L177.28-4.65ZM187.28-35.15L187.28 0 183.38 0 183.38-35.15 187.28-35.15ZM202.43-25.35L192.43-13.3 202.73 0 197.98 0 187.78-13.3 197.73-25.35 202.43-25.35ZM229.97 0L229.97 0 219.77 0 219.77-33.7 229.77-33.7Q237.22-33.7 242-29.08 246.77-24.45 246.77-17.1L246.77-17.1Q246.77-9.8 242.35-4.9 237.92 0 229.97 0ZM229.72-30.1L229.72-30.1 223.87-30.1 223.87-3.55 229.92-3.55Q236.17-3.55 239.37-7.43 242.57-11.3 242.57-17.1L242.57-17.1Q242.57-22.6 239-26.35 235.42-30.1 229.72-30.1ZM271.12-5L271.12-1.3Q268.17 0.25 263.92 0.25L263.92 0.25Q258.17 0.25 254.65-3.28 251.12-6.8 251.12-12.6L251.12-12.6Q251.12-18.65 254.27-22.15 257.42-25.65 262.37-25.65L262.37-25.65Q267.12-25.65 269.92-22.6 272.72-19.55 272.72-13.95L272.72-13.95Q272.72-12.35 272.47-11L272.47-11 255.17-11Q255.62-7.25 258.02-5.25 260.42-3.25 264.32-3.25L264.32-3.25Q268.57-3.25 271.12-5L271.12-5ZM262.37-22.2L262.37-22.2Q259.52-22.2 257.52-20.15 255.52-18.1 255.17-14.3L255.17-14.3 268.77-14.3 268.77-15.3Q268.77-18.45 267.07-20.33 265.37-22.2 262.37-22.2ZM299.07-25.35L290.02 0 285.17 0 276.32-25.35 280.42-25.35 283.92-14.65 287.62-3.1Q288.07-5.25 291.37-14.65L291.37-14.65 294.97-25.35 299.07-25.35Z" opacity="1" transform="matrix(1,0,0,1,0,0)" fill="black" class="slogan-text-1" id="SvgjsPath1614"></path></svg></g></svg></g></svg></g></svg></g><g transform="matrix(1,0,0,1,90.5157408,0)"><svg viewBox="0 0 214.48851839999998 214.48851839999998" height="214.48851839999998" width="214.48851839999998"><g><svg></svg></g><g id="SvgjsG1613"><svg viewBox="0 0 214.48851839999998 214.48851839999998" height="214.48851839999998" width="214.48851839999998"><g><rect width="195.02567136" height="195.02567136" x="9.731423519999993" y="9.731423519999993" fill="black"></rect><rect width="195.02567136" height="195.02567136" x="-5.329070518200751e-15" y="19.462847039999993" fill="black" opacity="0.5"></rect></g><g transform="matrix(1,0,0,1,29.812768300660593,27.80406719999999)"><svg viewBox="0 0 154.8629817986788 158.880384" height="158.880384" width="154.8629817986788"><g><svg xmlns="http://www.w3.org/2000/svg" xmlns:xlink="http://www.w3.org/1999/xlink" version="1.1" x="0" y="0" viewBox="5.637740379986418 5.999 87.72526144487975 90.001" enable-background="new 0 0 100 100" xml:space="preserve" height="158.880384" width="154.8629817986788" class="icon-cg-0" data-fill-palette-color="quaternary" id="SvgjsSvg1612"><g fill="black"><path d="M58.203 96H40.796c-2.211 0-4.011-1.8-4.011-4.011v-7.236c0-0.358-0.744-0.91-1.94-1.438l-0.194-0.09c-2.285-1.021-4.509-2.359-6.563-3.955-0.524-0.407-1.227-0.518-1.633-0.281l-6.016 3.473c-2.092 1.207-4.493 0.42-5.558-1.424L6.177 65.962c-0.536-0.928-0.678-2.008-0.401-3.043 0.278-1.036 0.941-1.901 1.87-2.437l0.938 1.286L7.787 60.4l0.414-0.238 0.912 1.301L8.32 60.094l4.765-2.75c1.446-0.84 1.446-0.84 1.32-1.739-0.201-1.366-0.29-2.776-0.29-4.503v-0.203c0-1.726 0.089-3.136 0.281-4.435l0.013-0.094c0.122-0.874 0.122-0.874-1.377-1.743l-4.709-2.719 0.696-1.425-0.79 1.371-0.44-0.254 0.699-1.423-0.843 1.34c-1.914-1.105-2.573-3.563-1.467-5.478l8.704-15.076c0.714-1.238 2.046-2.006 3.476-2.006 0.701 0 1.394 0.186 2.003 0.537l6.111 3.528c0.409 0.223 1.1 0.11 1.617-0.292 2.052-1.594 4.277-2.933 6.612-3.979l0.145-0.066c1.196-0.528 1.94-1.079 1.94-1.438v-7.236c0-2.212 1.8-4.012 4.011-4.012h17.407c2.212 0 4.011 1.8 4.011 4.012v7.236c0 0.358 0.745 0.909 1.942 1.438l0.171 0.079c2.323 1.042 4.538 2.376 6.586 3.966 0.516 0.401 1.205 0.513 1.616 0.292l6.083-3.512c2.022-1.147 4.446-0.383 5.508 1.451l8.703 15.077c1.104 1.916 0.446 4.373-1.469 5.479l-4.01 2.316-0.901-1.308 0.794 1.369-1.223 0.707c-1.544 0.895-1.544 0.895-1.418 1.795l0.016 0.116c0.188 1.314 0.272 2.698 0.272 4.387L84.884 51l0.001 0.102c0 1.72-0.088 3.123-0.277 4.413l-0.001 0.016c-0.136 0.975-0.136 0.975 1.362 1.844l1.269 0.732-0.692 1.426 0.794-1.368 3.341 1.929-0.698 1.425 0.79-1.372 0.605 0.351c0.905 0.521 1.569 1.387 1.846 2.423 0.278 1.035 0.136 2.115-0.399 3.043L84.12 81.037c-0.715 1.238-2.048 2.006-3.478 2.006-0.701 0-1.394-0.186-2.003-0.537l-6.084-3.513c-0.436-0.252-1.119-0.13-1.642 0.275-2.041 1.585-4.247 2.915-6.558 3.954l-0.227 0.103c-1.171 0.518-1.916 1.069-1.916 1.428v7.236C62.214 94.2 60.415 96 58.203 96zM36.123 80.419c1.643 0.727 3.827 1.965 3.827 4.334v7.236c0 0.466 0.379 0.847 0.846 0.847h17.407c0.467 0 0.848-0.381 0.848-0.847v-7.236c0-2.369 2.185-3.607 3.827-4.334l0.129-0.06c2.102-0.939 4.107-2.147 5.965-3.589 1.52-1.182 3.647-1.392 5.153-0.525l2.512 1.449-0.679 1.437 0.785-1.373 1.374 0.793-0.645 1.454 0.791-1.37 1.941 1.121c0.173 0.092 0.303 0.123 0.438 0.123 0.304 0 0.586-0.163 0.736-0.425l8.703-15.074c0.113-0.196 0.144-0.424 0.084-0.643-0.058-0.218-0.197-0.4-0.394-0.514l-5.343-3.085c-2.381-1.38-3.312-2.363-2.978-4.897l0.016-0.122c0.174-1.184 0.253-2.446 0.253-4.018L81.72 51l0.001-0.102c0-1.571-0.079-2.834-0.247-3.974l-0.018-0.145c-0.353-2.541 0.576-3.529 2.926-4.891l1.577-0.911 0.891 1.312-0.792-1.369 3.04-1.755 0.884 1.316-0.789-1.371 0.523-0.303c0.46-0.266 0.6-0.785 0.366-1.19l-8.703-15.075c-0.227-0.393-0.754-0.542-1.157-0.31l-3.479 2.008-0.84-1.342 0.75 1.394-2.604 1.5v0c-1.617 0.865-3.599 0.585-5.077-0.565-1.854-1.439-3.859-2.646-5.96-3.586l-0.085-0.041c-1.696-0.75-3.876-1.988-3.876-4.354v-7.236c0-0.467-0.381-0.847-0.848-0.847H40.796c-0.467 0-0.846 0.379-0.846 0.847v7.236c0 2.369-2.184 3.607-3.827 4.333l-0.75-1.397 0.655 1.44c-2.139 0.958-4.146 2.166-5.999 3.605-1.52 1.182-3.648 1.392-5.153 0.526l-2.513-1.451 0.679-1.436-0.785 1.374-3.413-1.971c-0.197-0.114-0.338-0.152-0.487-0.152-0.303 0-0.584 0.163-0.735 0.424L8.917 37.62c-0.113 0.196-0.143 0.425-0.084 0.643s0.199 0.4 0.394 0.514l5.34 3.083c2.408 1.396 3.334 2.386 2.971 4.977l-0.014 0.099c-0.167 1.133-0.245 2.396-0.245 3.964l0.001 0.125c-0.001 1.646 0.077 2.909 0.245 4.052l0.014 0.107c0.362 2.573-0.565 3.562-2.921 4.929L9.285 63.19c-0.253 0.146-0.393 0.329-0.452 0.547-0.059 0.219-0.029 0.446 0.084 0.642l8.705 15.076c0.228 0.396 0.756 0.541 1.157 0.311l3.479-2.009 0.841 1.341-0.73-1.405 2.578-1.485c0.553-0.32 1.282-0.511 2.039-0.511 1.072 0 2.153 0.382 3.044 1.074 1.844 1.434 3.839 2.636 5.931 3.574l0.087 0.041-0.129 0.271-0.434 1.211L36.123 80.419z" fill="black"></path></g><g fill="black"><path d="M49.5 78.996c-15.382 0-27.896-12.513-27.896-27.895 0-15.382 12.514-27.896 27.896-27.896s27.896 12.514 27.896 27.896C77.396 66.483 64.882 78.996 49.5 78.996zM49.5 26.37c-13.637 0-24.731 11.095-24.731 24.732 0 13.637 11.094 24.731 24.731 24.731 13.638 0 24.732-11.095 24.732-24.731C74.232 37.464 63.138 26.37 49.5 26.37z" fill="black"></path></g><path fill-rule="evenodd" clip-rule="evenodd" d="M60.46 62.594l-2.454-2.454 8.588-8.587-8.588-8.589 2.454-2.454 11.042 11.043L60.46 62.594zM44.735 61.963l7.537-22.557h3.471l-7.537 22.557H44.735zM39.529 61.726L28.487 50.685l11.042-11.042 2.454 2.454-8.588 8.588 8.588 8.588L39.529 61.726z" fill="black"></path></svg></g></svg></g></svg></g></svg></g><g></g></svg></g></svg></g><defs><mask></mask></defs></svg><rect width="243.58401640649328" height="247.2" fill="black" stroke="none" visibility="hidden"></rect></g></mask><mask><g id="SvgjsG1611"><svg viewBox="0 0 243.58401640649328 247.2" height="247.2" width="243.58401640649328"><g><svg viewBox="0 0 243.58401640649328 247.2" height="247.2" width="243.58401640649328"><g><svg viewBox="0 0 395.52 401.3914600900457" height="247.2" width="243.58401640649328"><g transform="matrix(1,0,0,1,0,236.74839908658612)"><svg viewBox="0 0 395.52 164.64306100345962" height="164.64306100345962" width="395.52"><g id="SvgjsG1610"><svg viewBox="0 0 395.52 164.64306100345962" height="164.64306100345962" width="395.52" id="SvgjsSvg1609"><g><svg viewBox="0 0 395.52 94.29116338207247" height="94.29116338207247" width="395.52"><g transform="matrix(1,0,0,1,0,0)"><svg width="395.52" viewBox="4.7 -37 157.29000000000002 37.5" height="94.29116338207247" data-palette-color="url(#d85785be-43a6-47ac-9d6e-db752953b664)"></svg></g></svg></g><g transform="matrix(1,0,0,1,0,116.55104406865861)"><svg viewBox="0 0 395.52 48.09201693480101" height="48.09201693480101" width="395.52"><g transform="matrix(1,0,0,1,0,0)"><svg width="395.52" viewBox="3.85 -35.35 295.21999999999997 35.9" height="48.09201693480101" data-palette-color="url(#961166fd-6f80-4978-a544-a6047a083c41)"><path d="M20.6-18.2L20.6-14.65 7.9-14.65 7.9 0 3.85 0 3.85-33.7 22.35-33.7 22.35-30.15 7.9-30.15 7.9-18.2 20.6-18.2ZM47.8-25.35L47.8 0 43.85 0 43.85-4.4Q41.85 0.3 35.9 0.3L35.9 0.3Q32.15 0.3 29.97-1.93 27.8-4.15 27.8-7.9L27.8-7.9 27.8-25.35 31.75-25.35 31.75-8.9Q31.75-6.15 33.15-4.7 34.55-3.25 36.95-3.25L36.95-3.25Q40.1-3.25 41.97-5.45 43.85-7.65 43.85-11.4L43.85-11.4 43.85-25.35 47.8-25.35ZM59.25-35.35L59.25 0 55.3 0 55.3-35.35 59.25-35.35ZM70.89-35.35L70.89 0 66.94 0 66.94-35.35 70.89-35.35ZM110.29-8.95L110.29-8.95Q110.29-4.5 107.24-2.08 104.19 0.35 99.39 0.35L99.39 0.35Q94.09 0.35 90.39-1.8L90.39-1.8 90.39-6.15Q94.04-3.4 99.29-3.4L99.29-3.4Q102.44-3.4 104.24-4.8 106.04-6.2 106.04-8.85L106.04-8.85Q106.04-9.95 105.61-10.83 105.19-11.7 104.21-12.43 103.24-13.15 102.36-13.63 101.49-14.1 99.99-14.8L99.99-14.8Q99.69-14.95 99.09-15.2L99.09-15.2Q96.94-16.15 95.81-16.75 94.69-17.35 93.16-18.53 91.64-19.7 90.94-21.25 90.24-22.8 90.24-24.85L90.24-24.85Q90.24-29.15 93.31-31.58 96.39-34 101.04-34L101.04-34Q105.39-34 108.44-32.45L108.44-32.45 108.44-28.2Q105.39-30.2 101.14-30.2L101.14-30.2Q98.09-30.2 96.29-28.78 94.49-27.35 94.49-25.05L94.49-25.05Q94.49-23.85 94.96-22.9 95.44-21.95 96.64-21.13 97.84-20.3 98.69-19.88 99.54-19.45 101.34-18.65L101.34-18.65Q103.04-17.9 103.94-17.48 104.84-17.05 106.26-16.13 107.69-15.2 108.41-14.33 109.14-13.45 109.71-12.03 110.29-10.6 110.29-8.95ZM129.49-4.4L129.49-0.65Q127.84 0.25 125.79 0.25L125.79 0.25Q118.29 0.25 118.29-7.4L118.29-7.4 118.29-22.15 114.24-22.15 114.24-25.35 118.29-25.35 118.29-31.65 122.24-31.65 122.24-25.35 129.24-25.35 129.24-22.15 122.24-22.15 122.24-7.3Q122.24-3.25 126.04-3.25L126.04-3.25Q127.99-3.25 129.49-4.4L129.49-4.4ZM142.98-3.05L142.98-3.05Q145.68-3.05 147.28-4.58 148.88-6.1 148.88-8.45L148.88-8.45 148.88-11.7 144.48-11.7Q141.28-11.7 139.68-10.45 138.08-9.2 138.08-7.3 138.08-5.4 139.33-4.23 140.58-3.05 142.98-3.05ZM148.93 0L148.93-3Q146.98 0.25 141.83 0.25L141.83 0.25Q138.28 0.25 136.11-1.85 133.93-3.95 133.93-7.15L133.93-7.15Q133.93-10.8 136.71-12.83 139.48-14.85 144.28-14.85L144.28-14.85 148.88-14.85 148.88-16.15Q148.88-19.15 147.53-20.68 146.18-22.2 142.98-22.2L142.98-22.2Q138.93-22.2 135.78-20.05L135.78-20.05 135.78-24Q138.63-25.75 143.28-25.75L143.28-25.75Q152.83-25.75 152.83-16.05L152.83-16.05 152.83 0 148.93 0ZM177.28-4.65L177.28-0.9Q174.88 0.55 171.38 0.55L171.38 0.55Q165.38 0.55 161.86-3.28 158.33-7.1 158.33-12.6L158.33-12.6Q158.33-18 161.86-21.9 165.38-25.8 171.48-25.8L171.48-25.8Q174.73-25.8 177.28-24.4L177.28-24.4 177.28-20.65Q174.98-22.2 171.88-22.2L171.88-22.2Q167.58-22.2 165-19.43 162.43-16.65 162.43-12.55L162.43-12.55Q162.48-8.45 164.93-5.73 167.38-3 171.88-3L171.88-3Q174.78-3 177.28-4.65L177.28-4.65ZM187.28-35.15L187.28 0 183.38 0 183.38-35.15 187.28-35.15ZM202.43-25.35L192.43-13.3 202.73 0 197.98 0 187.78-13.3 197.73-25.35 202.43-25.35ZM229.97 0L229.97 0 219.77 0 219.77-33.7 229.77-33.7Q237.22-33.7 242-29.08 246.77-24.45 246.77-17.1L246.77-17.1Q246.77-9.8 242.35-4.9 237.92 0 229.97 0ZM229.72-30.1L229.72-30.1 223.87-30.1 223.87-3.55 229.92-3.55Q236.17-3.55 239.37-7.43 242.57-11.3 242.57-17.1L242.57-17.1Q242.57-22.6 239-26.35 235.42-30.1 229.72-30.1ZM271.12-5L271.12-1.3Q268.17 0.25 263.92 0.25L263.92 0.25Q258.17 0.25 254.65-3.28 251.12-6.8 251.12-12.6L251.12-12.6Q251.12-18.65 254.27-22.15 257.42-25.65 262.37-25.65L262.37-25.65Q267.12-25.65 269.92-22.6 272.72-19.55 272.72-13.95L272.72-13.95Q272.72-12.35 272.47-11L272.47-11 255.17-11Q255.62-7.25 258.02-5.25 260.42-3.25 264.32-3.25L264.32-3.25Q268.57-3.25 271.12-5L271.12-5ZM262.37-22.2L262.37-22.2Q259.52-22.2 257.52-20.15 255.52-18.1 255.17-14.3L255.17-14.3 268.77-14.3 268.77-15.3Q268.77-18.45 267.07-20.33 265.37-22.2 262.37-22.2ZM299.07-25.35L290.02 0 285.17 0 276.32-25.35 280.42-25.35 283.92-14.65 287.62-3.1Q288.07-5.25 291.37-14.65L291.37-14.65 294.97-25.35 299.07-25.35Z" opacity="1" transform="matrix(1,0,0,1,0,0)" fill="black" class="slogan-text-1" id="SvgjsPath1608"></path></svg></g></svg></g></svg></g></svg></g><g transform="matrix(1,0,0,1,90.5157408,0)"><svg viewBox="0 0 214.48851839999998 214.48851839999998" height="214.48851839999998" width="214.48851839999998"><g><svg></svg></g><g id="SvgjsG1607"><svg viewBox="0 0 214.48851839999998 214.48851839999998" height="214.48851839999998" width="214.48851839999998"><g><rect width="195.02567136" height="195.02567136" x="9.731423519999993" y="9.731423519999993" fill="black"></rect><rect width="195.02567136" height="195.02567136" x="-5.329070518200751e-15" y="19.462847039999993" fill="black" opacity="0.5"></rect></g><g transform="matrix(1,0,0,1,29.812768300660593,27.80406719999999)"><svg viewBox="0 0 154.8629817986788 158.880384" height="158.880384" width="154.8629817986788"><g><svg xmlns="http://www.w3.org/2000/svg" xmlns:xlink="http://www.w3.org/1999/xlink" version="1.1" x="0" y="0" viewBox="5.637740379986418 5.999 87.72526144487975 90.001" enable-background="new 0 0 100 100" xml:space="preserve" height="158.880384" width="154.8629817986788" class="icon-cg-0" data-fill-palette-color="quaternary" id="SvgjsSvg1606"><g fill="black"><path d="M58.203 96H40.796c-2.211 0-4.011-1.8-4.011-4.011v-7.236c0-0.358-0.744-0.91-1.94-1.438l-0.194-0.09c-2.285-1.021-4.509-2.359-6.563-3.955-0.524-0.407-1.227-0.518-1.633-0.281l-6.016 3.473c-2.092 1.207-4.493 0.42-5.558-1.424L6.177 65.962c-0.536-0.928-0.678-2.008-0.401-3.043 0.278-1.036 0.941-1.901 1.87-2.437l0.938 1.286L7.787 60.4l0.414-0.238 0.912 1.301L8.32 60.094l4.765-2.75c1.446-0.84 1.446-0.84 1.32-1.739-0.201-1.366-0.29-2.776-0.29-4.503v-0.203c0-1.726 0.089-3.136 0.281-4.435l0.013-0.094c0.122-0.874 0.122-0.874-1.377-1.743l-4.709-2.719 0.696-1.425-0.79 1.371-0.44-0.254 0.699-1.423-0.843 1.34c-1.914-1.105-2.573-3.563-1.467-5.478l8.704-15.076c0.714-1.238 2.046-2.006 3.476-2.006 0.701 0 1.394 0.186 2.003 0.537l6.111 3.528c0.409 0.223 1.1 0.11 1.617-0.292 2.052-1.594 4.277-2.933 6.612-3.979l0.145-0.066c1.196-0.528 1.94-1.079 1.94-1.438v-7.236c0-2.212 1.8-4.012 4.011-4.012h17.407c2.212 0 4.011 1.8 4.011 4.012v7.236c0 0.358 0.745 0.909 1.942 1.438l0.171 0.079c2.323 1.042 4.538 2.376 6.586 3.966 0.516 0.401 1.205 0.513 1.616 0.292l6.083-3.512c2.022-1.147 4.446-0.383 5.508 1.451l8.703 15.077c1.104 1.916 0.446 4.373-1.469 5.479l-4.01 2.316-0.901-1.308 0.794 1.369-1.223 0.707c-1.544 0.895-1.544 0.895-1.418 1.795l0.016 0.116c0.188 1.314 0.272 2.698 0.272 4.387L84.884 51l0.001 0.102c0 1.72-0.088 3.123-0.277 4.413l-0.001 0.016c-0.136 0.975-0.136 0.975 1.362 1.844l1.269 0.732-0.692 1.426 0.794-1.368 3.341 1.929-0.698 1.425 0.79-1.372 0.605 0.351c0.905 0.521 1.569 1.387 1.846 2.423 0.278 1.035 0.136 2.115-0.399 3.043L84.12 81.037c-0.715 1.238-2.048 2.006-3.478 2.006-0.701 0-1.394-0.186-2.003-0.537l-6.084-3.513c-0.436-0.252-1.119-0.13-1.642 0.275-2.041 1.585-4.247 2.915-6.558 3.954l-0.227 0.103c-1.171 0.518-1.916 1.069-1.916 1.428v7.236C62.214 94.2 60.415 96 58.203 96zM36.123 80.419c1.643 0.727 3.827 1.965 3.827 4.334v7.236c0 0.466 0.379 0.847 0.846 0.847h17.407c0.467 0 0.848-0.381 0.848-0.847v-7.236c0-2.369 2.185-3.607 3.827-4.334l0.129-0.06c2.102-0.939 4.107-2.147 5.965-3.589 1.52-1.182 3.647-1.392 5.153-0.525l2.512 1.449-0.679 1.437 0.785-1.373 1.374 0.793-0.645 1.454 0.791-1.37 1.941 1.121c0.173 0.092 0.303 0.123 0.438 0.123 0.304 0 0.586-0.163 0.736-0.425l8.703-15.074c0.113-0.196 0.144-0.424 0.084-0.643-0.058-0.218-0.197-0.4-0.394-0.514l-5.343-3.085c-2.381-1.38-3.312-2.363-2.978-4.897l0.016-0.122c0.174-1.184 0.253-2.446 0.253-4.018L81.72 51l0.001-0.102c0-1.571-0.079-2.834-0.247-3.974l-0.018-0.145c-0.353-2.541 0.576-3.529 2.926-4.891l1.577-0.911 0.891 1.312-0.792-1.369 3.04-1.755 0.884 1.316-0.789-1.371 0.523-0.303c0.46-0.266 0.6-0.785 0.366-1.19l-8.703-15.075c-0.227-0.393-0.754-0.542-1.157-0.31l-3.479 2.008-0.84-1.342 0.75 1.394-2.604 1.5v0c-1.617 0.865-3.599 0.585-5.077-0.565-1.854-1.439-3.859-2.646-5.96-3.586l-0.085-0.041c-1.696-0.75-3.876-1.988-3.876-4.354v-7.236c0-0.467-0.381-0.847-0.848-0.847H40.796c-0.467 0-0.846 0.379-0.846 0.847v7.236c0 2.369-2.184 3.607-3.827 4.333l-0.75-1.397 0.655 1.44c-2.139 0.958-4.146 2.166-5.999 3.605-1.52 1.182-3.648 1.392-5.153 0.526l-2.513-1.451 0.679-1.436-0.785 1.374-3.413-1.971c-0.197-0.114-0.338-0.152-0.487-0.152-0.303 0-0.584 0.163-0.735 0.424L8.917 37.62c-0.113 0.196-0.143 0.425-0.084 0.643s0.199 0.4 0.394 0.514l5.34 3.083c2.408 1.396 3.334 2.386 2.971 4.977l-0.014 0.099c-0.167 1.133-0.245 2.396-0.245 3.964l0.001 0.125c-0.001 1.646 0.077 2.909 0.245 4.052l0.014 0.107c0.362 2.573-0.565 3.562-2.921 4.929L9.285 63.19c-0.253 0.146-0.393 0.329-0.452 0.547-0.059 0.219-0.029 0.446 0.084 0.642l8.705 15.076c0.228 0.396 0.756 0.541 1.157 0.311l3.479-2.009 0.841 1.341-0.73-1.405 2.578-1.485c0.553-0.32 1.282-0.511 2.039-0.511 1.072 0 2.153 0.382 3.044 1.074 1.844 1.434 3.839 2.636 5.931 3.574l0.087 0.041-0.129 0.271-0.434 1.211L36.123 80.419z" fill="black"></path></g><g fill="black"><path d="M49.5 78.996c-15.382 0-27.896-12.513-27.896-27.895 0-15.382 12.514-27.896 27.896-27.896s27.896 12.514 27.896 27.896C77.396 66.483 64.882 78.996 49.5 78.996zM49.5 26.37c-13.637 0-24.731 11.095-24.731 24.732 0 13.637 11.094 24.731 24.731 24.731 13.638 0 24.732-11.095 24.732-24.731C74.232 37.464 63.138 26.37 49.5 26.37z" fill="black"></path></g><path fill-rule="evenodd" clip-rule="evenodd" d="M60.46 62.594l-2.454-2.454 8.588-8.587-8.588-8.589 2.454-2.454 11.042 11.043L60.46 62.594zM44.735 61.963l7.537-22.557h3.471l-7.537 22.557H44.735zM39.529 61.726L28.487 50.685l11.042-11.042 2.454 2.454-8.588 8.588 8.588 8.588L39.529 61.726z" fill="black"></path></svg></g></svg></g></svg></g></svg></g><g></g></svg></g></svg></g><defs><mask></mask></defs><mask><g id="SvgjsG1605"><svg viewBox="0 0 243.58401640649328 247.2" height="247.2" width="243.58401640649328"><g><svg viewBox="0 0 243.58401640649328 247.2" height="247.2" width="243.58401640649328"><g><svg viewBox="0 0 395.52 401.3914600900457" height="247.2" width="243.58401640649328"><g transform="matrix(1,0,0,1,0,236.74839908658612)"><svg viewBox="0 0 395.52 164.64306100345962" height="164.64306100345962" width="395.52"><g id="SvgjsG1604"><svg viewBox="0 0 395.52 164.64306100345962" height="164.64306100345962" width="395.52" id="SvgjsSvg1603"><g><svg viewBox="0 0 395.52 94.29116338207247" height="94.29116338207247" width="395.52"><g transform="matrix(1,0,0,1,0,0)"><svg width="395.52" viewBox="4.7 -37 157.29000000000002 37.5" height="94.29116338207247" data-palette-color="url(#d85785be-43a6-47ac-9d6e-db752953b664)"><path d="M6.9-2.95L24.05-2.95Q24.65-2.95 25.1-2.53 25.55-2.1 25.55-1.5L25.55-1.5Q25.55-0.85 25.1-0.43 24.65 0 24.05 0L24.05 0 6.2 0Q5.55 0 5.13-0.45 4.7-0.9 4.7-1.5L4.7-1.5 4.7-33.5Q4.7-34.1 5.15-34.55 5.6-35 6.3-35L6.3-35Q6.9-35 7.38-34.55 7.85-34.1 7.85-33.5L7.85-33.5 7.85-2.1 6.9-2.95ZM51.3-25.55L51.3-25.55Q51.95-25.55 52.37-25.1 52.8-24.65 52.8-24L52.8-24 52.8-1.5Q52.8-0.9 52.35-0.45 51.9 0 51.3 0L51.3 0Q50.6 0 50.2-0.45 49.8-0.9 49.8-1.5L49.8-1.5 49.8-7.45 50.65-7.85Q50.65-6.45 49.87-5 49.1-3.55 47.75-2.3 46.4-1.05 44.57-0.28 42.75 0.5 40.6 0.5L40.6 0.5Q37.25 0.5 34.57-1.25 31.9-3 30.37-6.05 28.85-9.1 28.85-12.9L28.85-12.9Q28.85-16.8 30.4-19.78 31.95-22.75 34.6-24.45 37.25-26.15 40.55-26.15L40.55-26.15Q42.7-26.15 44.57-25.4 46.45-24.65 47.85-23.35 49.25-22.05 50.05-20.38 50.85-18.7 50.85-16.9L50.85-16.9 49.8-17.65 49.8-24Q49.8-24.65 50.2-25.1 50.6-25.55 51.3-25.55ZM40.9-2.3L40.9-2.3Q43.55-2.3 45.6-3.68 47.65-5.05 48.82-7.48 50-9.9 50-12.9L50-12.9Q50-15.85 48.82-18.2 47.65-20.55 45.6-21.95 43.55-23.35 40.9-23.35L40.9-23.35Q38.3-23.35 36.22-22 34.15-20.65 32.97-18.3 31.8-15.95 31.8-12.9L31.8-12.9Q31.8-9.9 32.95-7.48 34.1-5.05 36.17-3.68 38.25-2.3 40.9-2.3ZM72.7-26.15L72.7-26.15Q76-26.15 77.97-24.83 79.95-23.5 80.82-21.23 81.7-18.95 81.7-16.2L81.7-16.2 81.7-1.5Q81.7-0.9 81.25-0.45 80.8 0 80.2 0L80.2 0Q79.5 0 79.1-0.45 78.7-0.9 78.7-1.5L78.7-1.5 78.7-16.05Q78.7-18.05 78.05-19.7 77.4-21.35 75.92-22.35 74.45-23.35 72.05-23.35L72.05-23.35Q69.9-23.35 67.97-22.35 66.05-21.35 64.85-19.7 63.65-18.05 63.65-16.05L63.65-16.05 63.65-1.5Q63.65-0.9 63.2-0.45 62.75 0 62.15 0L62.15 0Q61.45 0 61.05-0.45 60.65-0.9 60.65-1.5L60.65-1.5 60.65-23.9Q60.65-24.5 61.07-24.95 61.5-25.4 62.15-25.4L62.15-25.4Q62.8-25.4 63.22-24.95 63.65-24.5 63.65-23.9L63.65-23.9 63.65-19.7 62.5-17.9Q62.6-19.5 63.52-20.98 64.45-22.45 65.9-23.63 67.35-24.8 69.12-25.48 70.9-26.15 72.7-26.15ZM110.29-37L110.29-37Q110.94-37 111.37-36.58 111.79-36.15 111.79-35.5L111.79-35.5 111.79-1.5Q111.79-0.9 111.34-0.45 110.89 0 110.29 0L110.29 0Q109.59 0 109.19-0.45 108.79-0.9 108.79-1.5L108.79-1.5 108.79-7.45 109.64-8.15Q109.64-6.75 108.89-5.23 108.14-3.7 106.77-2.4 105.39-1.1 103.57-0.3 101.74 0.5 99.59 0.5L99.59 0.5Q96.29 0.5 93.62-1.25 90.94-3 89.39-6 87.84-9 87.84-12.85L87.84-12.85Q87.84-16.65 89.39-19.68 90.94-22.7 93.59-24.43 96.24-26.15 99.54-26.15L99.54-26.15Q101.64-26.15 103.49-25.4 105.34-24.65 106.77-23.35 108.19-22.05 109.02-20.38 109.84-18.7 109.84-16.9L109.84-16.9 108.79-17.65 108.79-35.5Q108.79-36.1 109.19-36.55 109.59-37 110.29-37ZM99.89-2.3L99.89-2.3Q102.54-2.3 104.59-3.68 106.64-5.05 107.82-7.43 108.99-9.8 108.99-12.85L108.99-12.85Q108.99-15.85 107.82-18.23 106.64-20.6 104.59-21.98 102.54-23.35 99.89-23.35L99.89-23.35Q97.29-23.35 95.22-21.98 93.14-20.6 91.97-18.23 90.79-15.85 90.79-12.85L90.79-12.85Q90.79-9.85 91.97-7.45 93.14-5.05 95.22-3.68 97.29-2.3 99.89-2.3ZM130.99 0.5L130.99 0.5Q127.14 0.5 124.19-1.15 121.24-2.8 119.59-5.75 117.94-8.7 117.94-12.65L117.94-12.65Q117.94-16.9 119.62-19.9 121.29-22.9 123.97-24.53 126.64-26.15 129.64-26.15L129.64-26.15Q131.84-26.15 133.92-25.38 135.99-24.6 137.59-23.08 139.19-21.55 140.19-19.35 141.19-17.15 141.24-14.25L141.24-14.25Q141.24-13.65 140.79-13.23 140.34-12.8 139.74-12.8L139.74-12.8 119.69-12.8 119.09-15.5 138.79-15.5 138.14-14.9 138.14-15.9Q137.89-18.25 136.59-19.9 135.29-21.55 133.47-22.4 131.64-23.25 129.64-23.25L129.64-23.25Q128.14-23.25 126.57-22.65 124.99-22.05 123.72-20.78 122.44-19.5 121.64-17.53 120.84-15.55 120.84-12.85L120.84-12.85Q120.84-9.9 122.04-7.5 123.24-5.1 125.49-3.7 127.74-2.3 130.94-2.3L130.94-2.3Q132.64-2.3 134.04-2.8 135.44-3.3 136.52-4.13 137.59-4.95 138.29-5.85L138.29-5.85Q138.84-6.3 139.34-6.3L139.34-6.3Q139.89-6.3 140.27-5.9 140.64-5.5 140.64-5L140.64-5Q140.64-4.4 140.14-3.95L140.14-3.95Q138.64-2.15 136.24-0.83 133.84 0.5 130.99 0.5ZM148.94 0L148.94 0Q148.24 0 147.84-0.45 147.44-0.9 147.44-1.5L147.44-1.5 147.44-23.9Q147.44-24.5 147.86-24.95 148.29-25.4 148.94-25.4L148.94-25.4Q149.59-25.4 150.01-24.95 150.44-24.5 150.44-23.9L150.44-23.9 150.44-16.4 149.69-16.25Q149.84-18 150.56-19.73 151.29-21.45 152.54-22.9 153.79-24.35 155.51-25.25 157.24-26.15 159.39-26.15L159.39-26.15Q160.29-26.15 161.14-25.78 161.99-25.4 161.99-24.55L161.99-24.55Q161.99-23.8 161.59-23.4 161.19-23 160.64-23L160.64-23Q160.19-23 159.66-23.25 159.14-23.5 158.29-23.5L158.29-23.5Q156.89-23.5 155.49-22.68 154.09-21.85 152.94-20.45 151.79-19.05 151.11-17.32 150.44-15.6 150.44-13.85L150.44-13.85 150.44-1.5Q150.44-0.9 149.99-0.45 149.54 0 148.94 0Z" opacity="1" transform="matrix(1,0,0,1,0,0)" fill="black" class="wordmark-text-0" id="SvgjsPath1602"></path></svg></g></svg></g><g transform="matrix(1,0,0,1,0,116.55104406865861)"><svg viewBox="0 0 395.52 48.09201693480101" height="48.09201693480101" width="395.52"><g transform="matrix(1,0,0,1,0,0)"><svg width="395.52" viewBox="3.85 -35.35 295.21999999999997 35.9" height="48.09201693480101" data-palette-color="url(#961166fd-6f80-4978-a544-a6047a083c41)"><path d="M20.6-18.2L20.6-14.65 7.9-14.65 7.9 0 3.85 0 3.85-33.7 22.35-33.7 22.35-30.15 7.9-30.15 7.9-18.2 20.6-18.2ZM47.8-25.35L47.8 0 43.85 0 43.85-4.4Q41.85 0.3 35.9 0.3L35.9 0.3Q32.15 0.3 29.97-1.93 27.8-4.15 27.8-7.9L27.8-7.9 27.8-25.35 31.75-25.35 31.75-8.9Q31.75-6.15 33.15-4.7 34.55-3.25 36.95-3.25L36.95-3.25Q40.1-3.25 41.97-5.45 43.85-7.65 43.85-11.4L43.85-11.4 43.85-25.35 47.8-25.35ZM59.25-35.35L59.25 0 55.3 0 55.3-35.35 59.25-35.35ZM70.89-35.35L70.89 0 66.94 0 66.94-35.35 70.89-35.35ZM110.29-8.95L110.29-8.95Q110.29-4.5 107.24-2.08 104.19 0.35 99.39 0.35L99.39 0.35Q94.09 0.35 90.39-1.8L90.39-1.8 90.39-6.15Q94.04-3.4 99.29-3.4L99.29-3.4Q102.44-3.4 104.24-4.8 106.04-6.2 106.04-8.85L106.04-8.85Q106.04-9.95 105.61-10.83 105.19-11.7 104.21-12.43 103.24-13.15 102.36-13.63 101.49-14.1 99.99-14.8L99.99-14.8Q99.69-14.95 99.09-15.2L99.09-15.2Q96.94-16.15 95.81-16.75 94.69-17.35 93.16-18.53 91.64-19.7 90.94-21.25 90.24-22.8 90.24-24.85L90.24-24.85Q90.24-29.15 93.31-31.58 96.39-34 101.04-34L101.04-34Q105.39-34 108.44-32.45L108.44-32.45 108.44-28.2Q105.39-30.2 101.14-30.2L101.14-30.2Q98.09-30.2 96.29-28.78 94.49-27.35 94.49-25.05L94.49-25.05Q94.49-23.85 94.96-22.9 95.44-21.95 96.64-21.13 97.84-20.3 98.69-19.88 99.54-19.45 101.34-18.65L101.34-18.65Q103.04-17.9 103.94-17.48 104.84-17.05 106.26-16.13 107.69-15.2 108.41-14.33 109.14-13.45 109.71-12.03 110.29-10.6 110.29-8.95ZM129.49-4.4L129.49-0.65Q127.84 0.25 125.79 0.25L125.79 0.25Q118.29 0.25 118.29-7.4L118.29-7.4 118.29-22.15 114.24-22.15 114.24-25.35 118.29-25.35 118.29-31.65 122.24-31.65 122.24-25.35 129.24-25.35 129.24-22.15 122.24-22.15 122.24-7.3Q122.24-3.25 126.04-3.25L126.04-3.25Q127.99-3.25 129.49-4.4L129.49-4.4ZM142.98-3.05L142.98-3.05Q145.68-3.05 147.28-4.58 148.88-6.1 148.88-8.45L148.88-8.45 148.88-11.7 144.48-11.7Q141.28-11.7 139.68-10.45 138.08-9.2 138.08-7.3 138.08-5.4 139.33-4.23 140.58-3.05 142.98-3.05ZM148.93 0L148.93-3Q146.98 0.25 141.83 0.25L141.83 0.25Q138.28 0.25 136.11-1.85 133.93-3.95 133.93-7.15L133.93-7.15Q133.93-10.8 136.71-12.83 139.48-14.85 144.28-14.85L144.28-14.85 148.88-14.85 148.88-16.15Q148.88-19.15 147.53-20.68 146.18-22.2 142.98-22.2L142.98-22.2Q138.93-22.2 135.78-20.05L135.78-20.05 135.78-24Q138.63-25.75 143.28-25.75L143.28-25.75Q152.83-25.75 152.83-16.05L152.83-16.05 152.83 0 148.93 0ZM177.28-4.65L177.28-0.9Q174.88 0.55 171.38 0.55L171.38 0.55Q165.38 0.55 161.86-3.28 158.33-7.1 158.33-12.6L158.33-12.6Q158.33-18 161.86-21.9 165.38-25.8 171.48-25.8L171.48-25.8Q174.73-25.8 177.28-24.4L177.28-24.4 177.28-20.65Q174.98-22.2 171.88-22.2L171.88-22.2Q167.58-22.2 165-19.43 162.43-16.65 162.43-12.55L162.43-12.55Q162.48-8.45 164.93-5.73 167.38-3 171.88-3L171.88-3Q174.78-3 177.28-4.65L177.28-4.65ZM187.28-35.15L187.28 0 183.38 0 183.38-35.15 187.28-35.15ZM202.43-25.35L192.43-13.3 202.73 0 197.98 0 187.78-13.3 197.73-25.35 202.43-25.35ZM229.97 0L229.97 0 219.77 0 219.77-33.7 229.77-33.7Q237.22-33.7 242-29.08 246.77-24.45 246.77-17.1L246.77-17.1Q246.77-9.8 242.35-4.9 237.92 0 229.97 0ZM229.72-30.1L229.72-30.1 223.87-30.1 223.87-3.55 229.92-3.55Q236.17-3.55 239.37-7.43 242.57-11.3 242.57-17.1L242.57-17.1Q242.57-22.6 239-26.35 235.42-30.1 229.72-30.1ZM271.12-5L271.12-1.3Q268.17 0.25 263.92 0.25L263.92 0.25Q258.17 0.25 254.65-3.28 251.12-6.8 251.12-12.6L251.12-12.6Q251.12-18.65 254.27-22.15 257.42-25.65 262.37-25.65L262.37-25.65Q267.12-25.65 269.92-22.6 272.72-19.55 272.72-13.95L272.72-13.95Q272.72-12.35 272.47-11L272.47-11 255.17-11Q255.62-7.25 258.02-5.25 260.42-3.25 264.32-3.25L264.32-3.25Q268.57-3.25 271.12-5L271.12-5ZM262.37-22.2L262.37-22.2Q259.52-22.2 257.52-20.15 255.52-18.1 255.17-14.3L255.17-14.3 268.77-14.3 268.77-15.3Q268.77-18.45 267.07-20.33 265.37-22.2 262.37-22.2ZM299.07-25.35L290.02 0 285.17 0 276.32-25.35 280.42-25.35 283.92-14.65 287.62-3.1Q288.07-5.25 291.37-14.65L291.37-14.65 294.97-25.35 299.07-25.35Z" opacity="1" transform="matrix(1,0,0,1,0,0)" fill="black" class="slogan-text-1" id="SvgjsPath1601"></path></svg></g></svg></g></svg></g></svg></g><g transform="matrix(1,0,0,1,90.5157408,0)"><svg viewBox="0 0 214.48851839999998 214.48851839999998" height="214.48851839999998" width="214.48851839999998"><g><svg></svg></g><g id="SvgjsG1600"><svg viewBox="0 0 214.48851839999998 214.48851839999998" height="214.48851839999998" width="214.48851839999998"><g><rect width="195.02567136" height="195.02567136" x="9.731423519999993" y="9.731423519999993" fill="black"></rect><rect width="195.02567136" height="195.02567136" x="-5.329070518200751e-15" y="19.462847039999993" fill="black" opacity="0.5"></rect></g><g transform="matrix(1,0,0,1,29.812768300660593,27.80406719999999)"><svg viewBox="0 0 154.8629817986788 158.880384" height="158.880384" width="154.8629817986788"><g><svg xmlns="http://www.w3.org/2000/svg" xmlns:xlink="http://www.w3.org/1999/xlink" version="1.1" x="0" y="0" viewBox="5.637740379986418 5.999 87.72526144487975 90.001" enable-background="new 0 0 100 100" xml:space="preserve" height="158.880384" width="154.8629817986788" class="icon-cg-0" data-fill-palette-color="quaternary" id="SvgjsSvg1599"><g fill="black"><path d="M58.203 96H40.796c-2.211 0-4.011-1.8-4.011-4.011v-7.236c0-0.358-0.744-0.91-1.94-1.438l-0.194-0.09c-2.285-1.021-4.509-2.359-6.563-3.955-0.524-0.407-1.227-0.518-1.633-0.281l-6.016 3.473c-2.092 1.207-4.493 0.42-5.558-1.424L6.177 65.962c-0.536-0.928-0.678-2.008-0.401-3.043 0.278-1.036 0.941-1.901 1.87-2.437l0.938 1.286L7.787 60.4l0.414-0.238 0.912 1.301L8.32 60.094l4.765-2.75c1.446-0.84 1.446-0.84 1.32-1.739-0.201-1.366-0.29-2.776-0.29-4.503v-0.203c0-1.726 0.089-3.136 0.281-4.435l0.013-0.094c0.122-0.874 0.122-0.874-1.377-1.743l-4.709-2.719 0.696-1.425-0.79 1.371-0.44-0.254 0.699-1.423-0.843 1.34c-1.914-1.105-2.573-3.563-1.467-5.478l8.704-15.076c0.714-1.238 2.046-2.006 3.476-2.006 0.701 0 1.394 0.186 2.003 0.537l6.111 3.528c0.409 0.223 1.1 0.11 1.617-0.292 2.052-1.594 4.277-2.933 6.612-3.979l0.145-0.066c1.196-0.528 1.94-1.079 1.94-1.438v-7.236c0-2.212 1.8-4.012 4.011-4.012h17.407c2.212 0 4.011 1.8 4.011 4.012v7.236c0 0.358 0.745 0.909 1.942 1.438l0.171 0.079c2.323 1.042 4.538 2.376 6.586 3.966 0.516 0.401 1.205 0.513 1.616 0.292l6.083-3.512c2.022-1.147 4.446-0.383 5.508 1.451l8.703 15.077c1.104 1.916 0.446 4.373-1.469 5.479l-4.01 2.316-0.901-1.308 0.794 1.369-1.223 0.707c-1.544 0.895-1.544 0.895-1.418 1.795l0.016 0.116c0.188 1.314 0.272 2.698 0.272 4.387L84.884 51l0.001 0.102c0 1.72-0.088 3.123-0.277 4.413l-0.001 0.016c-0.136 0.975-0.136 0.975 1.362 1.844l1.269 0.732-0.692 1.426 0.794-1.368 3.341 1.929-0.698 1.425 0.79-1.372 0.605 0.351c0.905 0.521 1.569 1.387 1.846 2.423 0.278 1.035 0.136 2.115-0.399 3.043L84.12 81.037c-0.715 1.238-2.048 2.006-3.478 2.006-0.701 0-1.394-0.186-2.003-0.537l-6.084-3.513c-0.436-0.252-1.119-0.13-1.642 0.275-2.041 1.585-4.247 2.915-6.558 3.954l-0.227 0.103c-1.171 0.518-1.916 1.069-1.916 1.428v7.236C62.214 94.2 60.415 96 58.203 96zM36.123 80.419c1.643 0.727 3.827 1.965 3.827 4.334v7.236c0 0.466 0.379 0.847 0.846 0.847h17.407c0.467 0 0.848-0.381 0.848-0.847v-7.236c0-2.369 2.185-3.607 3.827-4.334l0.129-0.06c2.102-0.939 4.107-2.147 5.965-3.589 1.52-1.182 3.647-1.392 5.153-0.525l2.512 1.449-0.679 1.437 0.785-1.373 1.374 0.793-0.645 1.454 0.791-1.37 1.941 1.121c0.173 0.092 0.303 0.123 0.438 0.123 0.304 0 0.586-0.163 0.736-0.425l8.703-15.074c0.113-0.196 0.144-0.424 0.084-0.643-0.058-0.218-0.197-0.4-0.394-0.514l-5.343-3.085c-2.381-1.38-3.312-2.363-2.978-4.897l0.016-0.122c0.174-1.184 0.253-2.446 0.253-4.018L81.72 51l0.001-0.102c0-1.571-0.079-2.834-0.247-3.974l-0.018-0.145c-0.353-2.541 0.576-3.529 2.926-4.891l1.577-0.911 0.891 1.312-0.792-1.369 3.04-1.755 0.884 1.316-0.789-1.371 0.523-0.303c0.46-0.266 0.6-0.785 0.366-1.19l-8.703-15.075c-0.227-0.393-0.754-0.542-1.157-0.31l-3.479 2.008-0.84-1.342 0.75 1.394-2.604 1.5v0c-1.617 0.865-3.599 0.585-5.077-0.565-1.854-1.439-3.859-2.646-5.96-3.586l-0.085-0.041c-1.696-0.75-3.876-1.988-3.876-4.354v-7.236c0-0.467-0.381-0.847-0.848-0.847H40.796c-0.467 0-0.846 0.379-0.846 0.847v7.236c0 2.369-2.184 3.607-3.827 4.333l-0.75-1.397 0.655 1.44c-2.139 0.958-4.146 2.166-5.999 3.605-1.52 1.182-3.648 1.392-5.153 0.526l-2.513-1.451 0.679-1.436-0.785 1.374-3.413-1.971c-0.197-0.114-0.338-0.152-0.487-0.152-0.303 0-0.584 0.163-0.735 0.424L8.917 37.62c-0.113 0.196-0.143 0.425-0.084 0.643s0.199 0.4 0.394 0.514l5.34 3.083c2.408 1.396 3.334 2.386 2.971 4.977l-0.014 0.099c-0.167 1.133-0.245 2.396-0.245 3.964l0.001 0.125c-0.001 1.646 0.077 2.909 0.245 4.052l0.014 0.107c0.362 2.573-0.565 3.562-2.921 4.929L9.285 63.19c-0.253 0.146-0.393 0.329-0.452 0.547-0.059 0.219-0.029 0.446 0.084 0.642l8.705 15.076c0.228 0.396 0.756 0.541 1.157 0.311l3.479-2.009 0.841 1.341-0.73-1.405 2.578-1.485c0.553-0.32 1.282-0.511 2.039-0.511 1.072 0 2.153 0.382 3.044 1.074 1.844 1.434 3.839 2.636 5.931 3.574l0.087 0.041-0.129 0.271-0.434 1.211L36.123 80.419z" fill="black"></path></g><g fill="black"><path d="M49.5 78.996c-15.382 0-27.896-12.513-27.896-27.895 0-15.382 12.514-27.896 27.896-27.896s27.896 12.514 27.896 27.896C77.396 66.483 64.882 78.996 49.5 78.996zM49.5 26.37c-13.637 0-24.731 11.095-24.731 24.732 0 13.637 11.094 24.731 24.731 24.731 13.638 0 24.732-11.095 24.732-24.731C74.232 37.464 63.138 26.37 49.5 26.37z" fill="black"></path></g><path fill-rule="evenodd" clip-rule="evenodd" d="M60.46 62.594l-2.454-2.454 8.588-8.587-8.588-8.589 2.454-2.454 11.042 11.043L60.46 62.594zM44.735 61.963l7.537-22.557h3.471l-7.537 22.557H44.735zM39.529 61.726L28.487 50.685l11.042-11.042 2.454 2.454-8.588 8.588 8.588 8.588L39.529 61.726z" fill="black"></path></svg></g></svg></g></svg></g></svg></g><g></g></svg></g></svg></g><defs><mask></mask></defs></svg><rect width="243.58401640649328" height="247.2" fill="black" stroke="none" visibility="hidden"></rect></g></mask></svg><rect width="243.58401640649328" height="247.2" fill="black" stroke="none" visibility="hidden"></rect></g></mask></svg><rect width="243.58401640649328" height="247.2" fill="black" stroke="none" visibility="hidden"></rect></g></mask><linearGradient x1="0.054" x2="0.941" y1="0.5" y2="0.5" id="697f00e5-547e-465a-b82e-e001486ed736"><stop stop-color="#0f3054" offset="0"></stop><stop stop-color="#3b8dcb" offset="0.498"></stop><stop stop-color="#0f3054" offset="1"></stop></linearGradient><rect width="243.58401640649328" height="247.2" fill="url(#697f00e5-547e-465a-b82e-e001486ed736)" mask="url(#c2318242-bd8d-4f58-b2f4-4ce5d99ece63)" data-fill-palette-color="accent"></rect></svg><rect width="243.58401640649328" height="247.2" fill="none" stroke="none" visibility="hidden"></rect></g></svg></g></svg>